<svg width="65" height="64" viewBox="0 0 65 64" fill="none" xmlns="http://www.w3.org/2000/svg">
    <path d="M51.1667 18.6666H43.6733C42.4733 16.5333 40.82 14.6666 38.82 13.3333L43.1667 9.09325L39.4067 5.33325L33.62 11.1199C31.1404 10.5184 28.5529 10.5184 26.0733 11.1199L20.26 5.33325L16.5 9.09325L20.82 13.3333C18.82 14.6666 17.1933 16.5599 15.9933 18.6666H8.5V23.9999H14.0733C13.9133 24.8799 13.8333 25.7599 13.8333 26.6666V29.3333H8.5V34.6666H13.8333V37.3333C13.8333 38.2399 13.9133 39.1199 14.0733 39.9999H8.5V45.3333H15.9933C17.8645 48.5613 20.8046 51.0342 24.3055 52.3245C27.8064 53.6149 31.6482 53.6415 35.1667 52.3999V50.6666C35.1667 49.1466 35.4067 47.6266 35.8333 46.1599C34.0733 47.3599 31.9667 47.9999 29.8333 47.9999C23.94 47.9999 19.1667 43.2266 19.1667 37.3333V26.6666C19.1667 20.7733 23.94 15.9999 29.8333 15.9999C35.7267 15.9999 40.5 20.7733 40.5 26.6666V37.3333C40.5 37.8399 40.5 38.3733 40.3667 38.8799C41.94 37.4399 43.8067 36.3199 45.8333 35.5999V34.6666H51.1667V29.3333H45.8333V26.6666C45.8333 25.7599 45.7533 24.8799 45.5933 23.9999H51.1667V18.6666ZM57.4067 42.6666L47.8333 52.2399L43.5933 47.9999L40.5 51.0933L47.8333 59.0933L60.5 46.4266L57.4067 42.6666ZM35.1667 23.9999V29.3333H24.5V23.9999H35.1667ZM35.1667 34.6666V39.9999H24.5V34.6666H35.1667Z" fill="#54A6FB"/>
</svg>