<svg width="65" height="64" viewBox="0 0 65 64" fill="none" xmlns="http://www.w3.org/2000/svg">
    <path d="M23 36V32C23 31.6022 23.158 31.2206 23.4393 30.9393C23.7206 30.658 24.1022 30.5 24.5 30.5C24.8978 30.5 25.2794 30.658 25.5607 30.9393C25.842 31.2206 26 31.6022 26 32V36C26 36.3978 25.842 36.7794 25.5607 37.0607C25.2794 37.342 24.8978 37.5 24.5 37.5C24.1022 37.5 23.7206 37.342 23.4393 37.0607C23.158 36.7794 23 36.3978 23 36ZM32.5 37.5C32.8978 37.5 33.2794 37.342 33.5607 37.0607C33.842 36.7794 34 36.3978 34 36V30C34 29.6022 33.842 29.2206 33.5607 28.9393C33.2794 28.658 32.8978 28.5 32.5 28.5C32.1022 28.5 31.7206 28.658 31.4393 28.9393C31.158 29.2206 31 29.6022 31 30V36C31 36.3978 31.158 36.7794 31.4393 37.0607C31.7206 37.342 32.1022 37.5 32.5 37.5ZM40.5 37.5C40.8978 37.5 41.2794 37.342 41.5607 37.0607C41.842 36.7794 42 36.3978 42 36V28C42 27.6022 41.842 27.2206 41.5607 26.9393C41.2794 26.658 40.8978 26.5 40.5 26.5C40.1022 26.5 39.7206 26.658 39.4393 26.9393C39.158 27.2206 39 27.6022 39 28V36C39 36.3978 39.158 36.7794 39.4393 37.0607C39.7206 37.342 40.1022 37.5 40.5 37.5ZM54 19.5V44.5H56.5C56.8978 44.5 57.2794 44.658 57.5607 44.9393C57.842 45.2206 58 45.6022 58 46C58 46.3978 57.842 46.7794 57.5607 47.0607C57.2794 47.342 56.8978 47.5 56.5 47.5H34V52.7C35.2772 53.062 36.3803 53.8738 37.1059 54.9855C37.8314 56.0972 38.1304 57.4338 37.9476 58.7487C37.7649 60.0636 37.1127 61.268 36.1115 62.1397C35.1102 63.0114 33.8275 63.4915 32.5 63.4915C31.1725 63.4915 29.8898 63.0114 28.8885 62.1397C27.8873 61.268 27.2351 60.0636 27.0524 58.7487C26.8696 57.4338 27.1686 56.0972 27.8941 54.9855C28.6197 53.8738 29.7228 53.062 31 52.7V47.5H8.5C8.10218 47.5 7.72064 47.342 7.43934 47.0607C7.15804 46.7794 7 46.3978 7 46C7 45.6022 7.15804 45.2206 7.43934 44.9393C7.72064 44.658 8.10218 44.5 8.5 44.5H11V19.5H10.5C9.57174 19.5 8.6815 19.1313 8.02513 18.4749C7.36875 17.8185 7 16.9283 7 16V12C7 11.0717 7.36875 10.1815 8.02513 9.52513C8.6815 8.86875 9.57174 8.5 10.5 8.5H54.5C55.4283 8.5 56.3185 8.86875 56.9749 9.52513C57.6312 10.1815 58 11.0717 58 12V16C58 16.9283 57.6312 17.8185 56.9749 18.4749C56.3185 19.1313 55.4283 19.5 54.5 19.5H54ZM32.5 55.5C32.0055 55.5 31.5222 55.6466 31.1111 55.9213C30.7 56.196 30.3795 56.5865 30.1903 57.0433C30.0011 57.5001 29.9516 58.0028 30.048 58.4877C30.1445 58.9727 30.3826 59.4181 30.7322 59.7678C31.0819 60.1174 31.5273 60.3555 32.0123 60.452C32.4972 60.5484 32.9999 60.4989 33.4567 60.3097C33.9135 60.1205 34.304 59.8 34.5787 59.3889C34.8534 58.9778 35 58.4945 35 58C35 57.337 34.7366 56.7011 34.2678 56.2322C33.7989 55.7634 33.163 55.5 32.5 55.5ZM10.5 16.5H54.5C54.6326 16.5 54.7598 16.4473 54.8536 16.3536C54.9473 16.2598 55 16.1326 55 16V12C55 11.8674 54.9473 11.7402 54.8536 11.6464C54.7598 11.5527 54.6326 11.5 54.5 11.5H10.5C10.3674 11.5 10.2402 11.5527 10.1464 11.6464C10.0527 11.7402 10 11.8674 10 12V16C10 16.1326 10.0527 16.2598 10.1464 16.3536C10.2402 16.4473 10.3674 16.5 10.5 16.5ZM51 19.5H14V44.5H51V19.5Z" fill="#54A6FB"/>
</svg>