<svg width="18" height="18" viewBox="0 0 18 18" fill="none" xmlns="http://www.w3.org/2000/svg">
<path d="M4 14H8C8.28334 14 8.521 13.904 8.713 13.712C8.905 13.52 9.00067 13.2827 9 13C9 12.7167 8.904 12.479 8.712 12.287C8.52 12.095 8.28267 11.9993 8 12H4C3.71667 12 3.479 12.096 3.287 12.288C3.095 12.48 2.99934 12.7173 3 13C3 13.2833 3.096 13.521 3.288 13.713C3.48 13.905 3.71734 14.0007 4 14ZM10 6H14C14.2833 6 14.521 5.904 14.713 5.712C14.905 5.52 15.0007 5.28267 15 5C15 4.71667 14.904 4.479 14.712 4.287C14.52 4.095 14.2827 3.99934 14 4H10C9.71667 4 9.479 4.096 9.287 4.288C9.095 4.48 8.99934 4.71734 9 5C9 5.28334 9.096 5.521 9.288 5.713C9.48 5.905 9.71734 6.00067 10 6ZM7 10H11C11.2833 10 11.521 9.904 11.713 9.712C11.905 9.52 12.0007 9.28267 12 9C12 8.71667 11.904 8.479 11.712 8.287C11.52 8.095 11.2827 7.99934 11 8H7C6.71667 8 6.479 8.096 6.287 8.288C6.095 8.48 5.99934 8.71734 6 9C6 9.28334 6.096 9.521 6.288 9.713C6.48 9.905 6.71734 10.0007 7 10ZM2 18C1.45 18 0.979002 17.804 0.587002 17.412C0.195002 17.02 -0.000664969 16.5493 1.69779e-06 16V2C1.69779e-06 1.45 0.196002 0.979002 0.588002 0.587002C0.980002 0.195002 1.45067 -0.000664969 2 1.69779e-06H16C16.55 1.69779e-06 17.021 0.196002 17.413 0.588002C17.805 0.980002 18.0007 1.45067 18 2V16C18 16.55 17.804 17.021 17.412 17.413C17.02 17.805 16.5493 18.0007 16 18H2ZM2 16H16V2H2V16Z" fill="#54A6FB"/>
</svg>
