<svg width="20" height="20" viewBox="0 0 20 20" fill="none" xmlns="http://www.w3.org/2000/svg">
<path d="M8.99988 12H10.9999V9H13.9999V7H10.9999V4H8.99988V7H5.99988V9H8.99988V12ZM-0.00012207 20V2C-0.00012207 1.45 0.195878 0.979 0.587878 0.587C0.979211 0.195667 1.44988 0 1.99988 0H17.9999C18.5499 0 19.0209 0.195667 19.4129 0.587C19.8042 0.979 19.9999 1.45 19.9999 2V14C19.9999 14.55 19.8042 15.021 19.4129 15.413C19.0209 15.8043 18.5499 16 17.9999 16H3.99988L-0.00012207 20ZM1.99988 15.175L3.17488 14H17.9999V2H1.99988V15.175Z" fill="#666666"/>
</svg>
