<svg width="20" height="20" viewBox="0 0 20 20" fill="none" xmlns="http://www.w3.org/2000/svg">
<path d="M0.999878 18V6.7C0.716545 6.51667 0.479211 6.28333 0.287878 6C0.095878 5.71667 -0.00012207 5.38333 -0.00012207 5V2C-0.00012207 1.45 0.195878 0.979 0.587878 0.587C0.979211 0.195667 1.44988 0 1.99988 0H17.9999C18.5499 0 19.0209 0.195667 19.4129 0.587C19.8042 0.979 19.9999 1.45 19.9999 2V5C19.9999 5.38333 19.9039 5.71667 19.7119 6C19.5205 6.28333 19.2832 6.51667 18.9999 6.7V18C18.9999 18.55 18.8042 19.021 18.4129 19.413C18.0209 19.8043 17.5499 20 16.9999 20H2.99988C2.44988 20 1.97888 19.8043 1.58688 19.413C1.19554 19.021 0.999878 18.55 0.999878 18ZM2.99988 7V18H16.9999V7H2.99988ZM17.9999 5V2H1.99988V5H17.9999ZM6.99988 12H12.9999V10H6.99988V12Z" fill="#666666"/>
</svg>
