<svg width="56" height="56" viewBox="0 0 56 56" fill="none" xmlns="http://www.w3.org/2000/svg">
<rect width="56" height="56" rx="8" fill="#54A6FB"/>
<path d="M23.2 35.2L28 31.54L32.8 35.2L31 29.26L35.8 25.84H29.92L28 19.6L26.08 25.84H20.2L25 29.26L23.2 35.2ZM28 40C26.34 40 24.78 39.6848 23.32 39.0544C21.86 38.4248 20.59 37.57 19.51 36.49C18.43 35.41 17.5752 34.14 16.9456 32.68C16.3152 31.22 16 29.66 16 28C16 26.34 16.3152 24.78 16.9456 23.32C17.5752 21.86 18.43 20.59 19.51 19.51C20.59 18.43 21.86 17.5748 23.32 16.9444C24.78 16.3148 26.34 16 28 16C29.66 16 31.22 16.3148 32.68 16.9444C34.14 17.5748 35.41 18.43 36.49 19.51C37.57 20.59 38.4248 21.86 39.0544 23.32C39.6848 24.78 40 26.34 40 28C40 29.66 39.6848 31.22 39.0544 32.68C38.4248 34.14 37.57 35.41 36.49 36.49C35.41 37.57 34.14 38.4248 32.68 39.0544C31.22 39.6848 29.66 40 28 40ZM28 37.6C30.68 37.6 32.95 36.67 34.81 34.81C36.67 32.95 37.6 30.68 37.6 28C37.6 25.32 36.67 23.05 34.81 21.19C32.95 19.33 30.68 18.4 28 18.4C25.32 18.4 23.05 19.33 21.19 21.19C19.33 23.05 18.4 25.32 18.4 28C18.4 30.68 19.33 32.95 21.19 34.81C23.05 36.67 25.32 37.6 28 37.6Z" fill="white"/>
</svg>
