<svg width="58" height="56" viewBox="0 0 58 56" fill="none" xmlns="http://www.w3.org/2000/svg">
<path d="M29 40C28.0153 40 27.217 39.2017 27.217 38.217V17.783C27.217 16.7983 28.0153 16 29 16V16C29.9847 16 30.783 16.7983 30.783 17.783V38.217C30.783 39.2017 29.9847 40 29 40V40ZM18.3585 29.6981C17.4363 29.6981 16.6887 28.9505 16.6887 28.0283V28.0283C16.6887 27.1061 17.4363 26.3585 18.3585 26.3585H39.6415C40.5637 26.3585 41.3113 27.1061 41.3113 28.0283V28.0283C41.3113 28.9505 40.5637 29.6981 39.6415 29.6981H18.3585Z" fill="#54A6FB"/>
</svg>
