<svg width="42" height="42" viewBox="0 0 42 42" fill="none" xmlns="http://www.w3.org/2000/svg">
<rect width="42" height="42" rx="8" fill="#54A6FB"/>
<path d="M9 27V25.425C9 24.7083 9.36667 24.125 10.1 23.675C10.8333 23.225 11.8 23 13 23C13.2167 23 13.425 23.0042 13.625 23.0125C13.825 23.0208 14.0167 23.0417 14.2 23.075C13.9667 23.425 13.7917 23.7917 13.675 24.175C13.5583 24.5583 13.5 24.9583 13.5 25.375V27H9ZM15 27V25.375C15 24.8417 15.1458 24.3542 15.4375 23.9125C15.7292 23.4708 16.1417 23.0833 16.675 22.75C17.2083 22.4167 17.8458 22.1667 18.5875 22C19.3292 21.8333 20.1333 21.75 21 21.75C21.8833 21.75 22.6958 21.8333 23.4375 22C24.1792 22.1667 24.8167 22.4167 25.35 22.75C25.8833 23.0833 26.2917 23.4708 26.575 23.9125C26.8583 24.3542 27 24.8417 27 25.375V27H15ZM28.5 27V25.375C28.5 24.9417 28.4458 24.5333 28.3375 24.15C28.2292 23.7667 28.0667 23.4083 27.85 23.075C28.0333 23.0417 28.2208 23.0208 28.4125 23.0125C28.6042 23.0042 28.8 23 29 23C30.2 23 31.1667 23.2208 31.9 23.6625C32.6333 24.1042 33 24.6917 33 25.425V27H28.5ZM17.125 25H24.9C24.7333 24.6667 24.2708 24.375 23.5125 24.125C22.7542 23.875 21.9167 23.75 21 23.75C20.0833 23.75 19.2458 23.875 18.4875 24.125C17.7292 24.375 17.275 24.6667 17.125 25ZM13 22C12.45 22 11.9792 21.8042 11.5875 21.4125C11.1958 21.0208 11 20.55 11 20C11 19.4333 11.1958 18.9583 11.5875 18.575C11.9792 18.1917 12.45 18 13 18C13.5667 18 14.0417 18.1917 14.425 18.575C14.8083 18.9583 15 19.4333 15 20C15 20.55 14.8083 21.0208 14.425 21.4125C14.0417 21.8042 13.5667 22 13 22ZM29 22C28.45 22 27.9792 21.8042 27.5875 21.4125C27.1958 21.0208 27 20.55 27 20C27 19.4333 27.1958 18.9583 27.5875 18.575C27.9792 18.1917 28.45 18 29 18C29.5667 18 30.0417 18.1917 30.425 18.575C30.8083 18.9583 31 19.4333 31 20C31 20.55 30.8083 21.0208 30.425 21.4125C30.0417 21.8042 29.5667 22 29 22ZM21 21C20.1667 21 19.4583 20.7083 18.875 20.125C18.2917 19.5417 18 18.8333 18 18C18 17.15 18.2917 16.4375 18.875 15.8625C19.4583 15.2875 20.1667 15 21 15C21.85 15 22.5625 15.2875 23.1375 15.8625C23.7125 16.4375 24 17.15 24 18C24 18.8333 23.7125 19.5417 23.1375 20.125C22.5625 20.7083 21.85 21 21 21ZM21 19C21.2833 19 21.5208 18.9042 21.7125 18.7125C21.9042 18.5208 22 18.2833 22 18C22 17.7167 21.9042 17.4792 21.7125 17.2875C21.5208 17.0958 21.2833 17 21 17C20.7167 17 20.4792 17.0958 20.2875 17.2875C20.0958 17.4792 20 17.7167 20 18C20 18.2833 20.0958 18.5208 20.2875 18.7125C20.4792 18.9042 20.7167 19 21 19Z" fill="white"/>
</svg>
