<svg width="56" height="56" viewBox="0 0 56 56" fill="none" xmlns="http://www.w3.org/2000/svg">
<rect width="56" height="56" rx="8" fill="#54A6FB"/>
<path d="M28.7059 40L28.3529 36.4H28C24.6588 36.4 21.8235 35.41 19.4941 33.43C17.1647 31.45 16 29.04 16 26.2C16 23.36 17.1647 20.95 19.4941 18.97C21.8235 16.99 24.6588 16 28 16C29.6706 16 31.2292 16.2648 32.6758 16.7944C34.1233 17.3248 35.3944 18.0548 36.4889 18.9844C37.5826 19.9148 38.4409 20.9948 39.064 22.2244C39.688 23.4548 40 24.78 40 26.2C40 27.7 39.712 29.14 39.136 30.52C38.5591 31.9 37.7708 33.18 36.7713 34.36C35.7708 35.54 34.5826 36.61 33.2066 37.57C31.8296 38.53 30.3294 39.34 28.7059 40ZM31.5294 35.62C33.2 34.42 34.5586 33.0152 35.6052 31.4056C36.6527 29.7952 37.1765 28.06 37.1765 26.2C37.1765 24.02 36.2885 22.1748 34.5125 20.6644C32.7355 19.1548 30.5647 18.4 28 18.4C25.4353 18.4 23.2649 19.1548 21.4889 20.6644C19.712 22.1748 18.8235 24.02 18.8235 26.2C18.8235 28.38 19.712 30.2252 21.4889 31.7356C23.2649 33.2452 25.4353 34 28 34H31.5294V35.62ZM27.9647 32.77C28.3647 32.77 28.7059 32.65 28.9882 32.41C29.2706 32.17 29.4118 31.88 29.4118 31.54C29.4118 31.2 29.2706 30.91 28.9882 30.67C28.7059 30.43 28.3647 30.31 27.9647 30.31C27.5647 30.31 27.2235 30.43 26.9412 30.67C26.6588 30.91 26.5176 31.2 26.5176 31.54C26.5176 31.88 26.6588 32.17 26.9412 32.41C27.2235 32.65 27.5647 32.77 27.9647 32.77ZM26.9412 28.96H29.0588C29.0588 28.36 29.1294 27.94 29.2706 27.7C29.4118 27.46 29.8588 27.02 30.6118 26.38C31.0353 26.02 31.3882 25.63 31.6706 25.21C31.9529 24.79 32.0941 24.34 32.0941 23.86C32.0941 22.84 31.6885 22.0748 30.8772 21.5644C30.0649 21.0548 29.1059 20.8 28 20.8C26.9647 20.8 26.0941 21.0448 25.3882 21.5344C24.6824 22.0248 24.1882 22.62 23.9059 23.32L25.8824 23.98C26 23.64 26.2235 23.3048 26.5529 22.9744C26.8824 22.6448 27.3647 22.48 28 22.48C28.6353 22.48 29.112 22.63 29.4301 22.93C29.7473 23.23 29.9059 23.56 29.9059 23.92C29.9059 24.26 29.7882 24.5648 29.5529 24.8344C29.3176 25.1048 29.0353 25.38 28.7059 25.66C27.8824 26.26 27.3826 26.7348 27.2066 27.0844C27.0296 27.4348 26.9412 28.06 26.9412 28.96Z" fill="white"/>
</svg>
