<svg width="56" height="56" viewBox="0 0 56 56" fill="none" xmlns="http://www.w3.org/2000/svg">
<rect width="56" height="56" rx="8" fill="#54A6FB" fill-opacity="0.1"/>
<path d="M22.6667 34.6667C23.0444 34.6667 23.3613 34.5387 23.6173 34.2827C23.8724 34.0276 24 33.7111 24 33.3333C24 32.9556 23.8724 32.6387 23.6173 32.3827C23.3613 32.1276 23.0444 32 22.6667 32C22.2889 32 21.972 32.1276 21.716 32.3827C21.4609 32.6387 21.3333 32.9556 21.3333 33.3333C21.3333 33.7111 21.4609 34.0276 21.716 34.2827C21.972 34.5387 22.2889 34.6667 22.6667 34.6667ZM22.6667 29.3333C23.0444 29.3333 23.3613 29.2053 23.6173 28.9493C23.8724 28.6942 24 28.3778 24 28C24 27.6222 23.8724 27.3053 23.6173 27.0493C23.3613 26.7942 23.0444 26.6667 22.6667 26.6667C22.2889 26.6667 21.972 26.7942 21.716 27.0493C21.4609 27.3053 21.3333 27.6222 21.3333 28C21.3333 28.3778 21.4609 28.6942 21.716 28.9493C21.972 29.2053 22.2889 29.3333 22.6667 29.3333ZM22.6667 24C23.0444 24 23.3613 23.872 23.6173 23.616C23.8724 23.3609 24 23.0444 24 22.6667C24 22.2889 23.8724 21.972 23.6173 21.716C23.3613 21.4609 23.0444 21.3333 22.6667 21.3333C22.2889 21.3333 21.972 21.4609 21.716 21.716C21.4609 21.972 21.3333 22.2889 21.3333 22.6667C21.3333 23.0444 21.4609 23.3609 21.716 23.616C21.972 23.872 22.2889 24 22.6667 24ZM26.6667 34.6667H34.6667V32H26.6667V34.6667ZM26.6667 29.3333H34.6667V26.6667H26.6667V29.3333ZM26.6667 24H34.6667V21.3333H26.6667V24ZM18.6667 40C17.9333 40 17.3053 39.7391 16.7827 39.2173C16.2609 38.6947 16 38.0667 16 37.3333V18.6667C16 17.9333 16.2609 17.3053 16.7827 16.7827C17.3053 16.2609 17.9333 16 18.6667 16H37.3333C38.0667 16 38.6947 16.2609 39.2173 16.7827C39.7391 17.3053 40 17.9333 40 18.6667V37.3333C40 38.0667 39.7391 38.6947 39.2173 39.2173C38.6947 39.7391 38.0667 40 37.3333 40H18.6667ZM18.6667 37.3333H37.3333V18.6667H18.6667V37.3333Z" fill="#54A6FB"/>
</svg>
