<svg width="24" height="24" viewBox="0 0 24 24" fill="none" xmlns="http://www.w3.org/2000/svg">
<mask id="mask0_167_5529" style="mask-type:alpha" maskUnits="userSpaceOnUse" x="0" y="0" width="24" height="24">
<rect width="24" height="24" fill="#D9D9D9"/>
</mask>
<g mask="url(#mask0_167_5529)">
<path d="M1.33333 20C0.596953 20 0 19.403 0 18.6667C0 17.9303 0.596954 17.3333 1.33333 17.3333H19.3333C20.0697 17.3333 20.6667 17.9303 20.6667 18.6667C20.6667 19.403 20.0697 20 19.3333 20H1.33333ZM1.33333 13.3333C0.596954 13.3333 0 12.7364 0 12C0 11.2636 0.596954 10.6667 1.33333 10.6667H14.6667C15.403 10.6667 16 11.2636 16 12C16 12.7364 15.403 13.3333 14.6667 13.3333H1.33333ZM1.33333 6.66667C0.596954 6.66667 0 6.06971 0 5.33333C0 4.59695 0.596954 4 1.33333 4H22.6667C23.403 4 24 4.59695 24 5.33333C24 6.06971 23.403 6.66667 22.6667 6.66667H1.33333Z" fill="#54A6FB"/>
</g>
</svg>
