<svg width="22" height="22" viewBox="0 0 22 22" fill="none" xmlns="http://www.w3.org/2000/svg">
<path d="M4.4 13.2H13.2V11H4.4V13.2ZM4.4 9.9H17.6V7.7H4.4V9.9ZM4.4 6.6H17.6V4.4H4.4V6.6ZM0 22V2.2C0 1.595 0.215417 1.07708 0.64625 0.64625C1.07708 0.215417 1.595 0 2.2 0H19.8C20.405 0 20.9229 0.215417 21.3538 0.64625C21.7846 1.07708 22 1.595 22 2.2V15.4C22 16.005 21.7846 16.5229 21.3538 16.9538C20.9229 17.3846 20.405 17.6 19.8 17.6H4.4L0 22ZM2.2 16.6925L3.4925 15.4H19.8V2.2H2.2V16.6925Z" fill="#666666"/>
</svg>
