<svg width="18" height="18" viewBox="0 0 18 18" fill="none" xmlns="http://www.w3.org/2000/svg">
<path d="M15.9 17.5125L10.3 11.9125C9.8 12.3125 9.225 12.6292 8.575 12.8625C7.925 13.0958 7.23333 13.2125 6.5 13.2125C4.68333 13.2125 3.146 12.5835 1.888 11.3255C0.629333 10.0668 0 8.52916 0 6.71249C0 4.89583 0.629333 3.35816 1.888 2.09949C3.146 0.841494 4.68333 0.212494 6.5 0.212494C8.31667 0.212494 9.85433 0.841494 11.113 2.09949C12.371 3.35816 13 4.89583 13 6.71249C13 7.44583 12.8833 8.13749 12.65 8.78749C12.4167 9.43749 12.1 10.0125 11.7 10.5125L17.325 16.1375C17.5083 16.3208 17.6 16.5458 17.6 16.8125C17.6 17.0792 17.5 17.3125 17.3 17.5125C17.1167 17.6958 16.8833 17.7875 16.6 17.7875C16.3167 17.7875 16.0833 17.6958 15.9 17.5125ZM6.5 11.2125C7.75 11.2125 8.81267 10.7752 9.688 9.90049C10.5627 9.02516 11 7.96249 11 6.71249C11 5.46249 10.5627 4.39983 9.688 3.52449C8.81267 2.64983 7.75 2.21249 6.5 2.21249C5.25 2.21249 4.18733 2.64983 3.312 3.52449C2.43733 4.39983 2 5.46249 2 6.71249C2 7.96249 2.43733 9.02516 3.312 9.90049C4.18733 10.7752 5.25 11.2125 6.5 11.2125Z" fill="#D3D3D3"/>
</svg>
