<svg width="22" height="20" viewBox="0 0 22 20" fill="none" xmlns="http://www.w3.org/2000/svg">
<path d="M17.2222 13.8571V9.4C16.7778 9.48571 16.3333 9.57143 15.8889 9.57143H15.4444V14.7143H6.55556V8.71429C6.55556 6.31429 8.51111 4.42857 11 4.42857C11.0889 3.31429 11.6222 2.37143 12.3333 1.6C12.0667 1.25714 11.5333 1 11 1C10.0222 1 9.22222 1.77143 9.22222 2.71429V2.97143C6.55556 3.74286 4.77778 6.05714 4.77778 8.71429V13.8571L3 15.5714V16.4286H19V15.5714L17.2222 13.8571ZM9.22222 17.2857C9.22222 18.2286 10.0222 19 11 19C11.9778 19 12.7778 18.2286 12.7778 17.2857H9.22222ZM19 4.85714C19 6.48571 17.5778 7.85714 15.8889 7.85714C14.2 7.85714 12.7778 6.48571 12.7778 4.85714C12.7778 3.22857 14.2 1.85714 15.8889 1.85714C17.5778 1.85714 19 3.22857 19 4.85714Z" fill="white"/>
<path d="M15.8889 7.85714C17.5778 7.85714 19 6.48571 19 4.85714C19 3.22857 17.5778 1.85714 15.8889 1.85714C14.2 1.85714 12.7778 3.22857 12.7778 4.85714C12.7778 6.48571 14.2 7.85714 15.8889 7.85714Z" fill="#ED3D3D"/>
</svg>
