<svg width="13" height="10" viewBox="0 0 13 10" fill="none" xmlns="http://www.w3.org/2000/svg">
<path d="M0.643066 9.36375V7.83647C0.643066 7.52738 0.722612 7.24329 0.881703 6.9842C1.04079 6.72511 1.25216 6.52738 1.51579 6.39102C2.07943 6.1092 2.65216 5.89784 3.23398 5.75693C3.81579 5.61602 4.4067 5.54557 5.0067 5.54557C5.6067 5.54557 6.19761 5.61602 6.77943 5.75693C7.36125 5.89784 7.93398 6.1092 8.49761 6.39102C8.76125 6.52738 8.97261 6.72511 9.1317 6.9842C9.29079 7.24329 9.37034 7.52738 9.37034 7.83647V9.36375H0.643066ZM10.4612 9.36375V7.72738C10.4612 7.32738 10.3499 6.94329 10.1272 6.57511C9.90443 6.20693 9.58852 5.89102 9.17943 5.62738C9.64307 5.68193 10.0794 5.77511 10.4885 5.90693C10.8976 6.03875 11.2794 6.20011 11.634 6.39102C11.9612 6.57284 12.2112 6.77511 12.384 6.99784C12.5567 7.22057 12.6431 7.46375 12.6431 7.72738V9.36375H10.4612ZM5.0067 5.00011C4.4067 5.00011 3.89307 4.78647 3.46579 4.3592C3.03852 3.93193 2.82488 3.41829 2.82488 2.81829C2.82488 2.21829 3.03852 1.70466 3.46579 1.27738C3.89307 0.850111 4.4067 0.636475 5.0067 0.636475C5.6067 0.636475 6.12034 0.850111 6.54761 1.27738C6.97488 1.70466 7.18852 2.21829 7.18852 2.81829C7.18852 3.41829 6.97488 3.93193 6.54761 4.3592C6.12034 4.78647 5.6067 5.00011 5.0067 5.00011ZM10.4612 2.81829C10.4612 3.41829 10.2476 3.93193 9.82034 4.3592C9.39307 4.78647 8.87943 5.00011 8.27943 5.00011C8.17943 5.00011 8.05216 4.98875 7.89761 4.96602C7.74307 4.94329 7.61579 4.91829 7.51579 4.89102C7.76125 4.60011 7.94988 4.27738 8.0817 3.92284C8.21352 3.56829 8.27943 3.20011 8.27943 2.81829C8.27943 2.43647 8.21352 2.06829 8.0817 1.71375C7.94988 1.3592 7.76125 1.03647 7.51579 0.745566C7.64307 0.700111 7.77034 0.670566 7.89761 0.656929C8.02488 0.643293 8.15216 0.636475 8.27943 0.636475C8.87943 0.636475 9.39307 0.850111 9.82034 1.27738C10.2476 1.70466 10.4612 2.21829 10.4612 2.81829ZM1.73398 8.27284H8.27943V7.83647C8.27943 7.73647 8.25443 7.64557 8.20443 7.56375C8.15443 7.48193 8.08852 7.41829 8.0067 7.37284C7.51579 7.12738 7.02034 6.94329 6.52034 6.82057C6.02034 6.69784 5.51579 6.63647 5.0067 6.63647C4.49761 6.63647 3.99307 6.69784 3.49307 6.82057C2.99307 6.94329 2.49761 7.12738 2.0067 7.37284C1.92488 7.41829 1.85898 7.48193 1.80898 7.56375C1.75898 7.64557 1.73398 7.73647 1.73398 7.83647V8.27284ZM5.0067 3.9092C5.3067 3.9092 5.56352 3.80238 5.77716 3.58875C5.99079 3.37511 6.09761 3.11829 6.09761 2.81829C6.09761 2.51829 5.99079 2.26147 5.77716 2.04784C5.56352 1.8342 5.3067 1.72738 5.0067 1.72738C4.7067 1.72738 4.44988 1.8342 4.23625 2.04784C4.02261 2.26147 3.91579 2.51829 3.91579 2.81829C3.91579 3.11829 4.02261 3.37511 4.23625 3.58875C4.44988 3.80238 4.7067 3.9092 5.0067 3.9092Z" fill="#666666"/>
</svg>
