<svg width="300" height="300" viewBox="0 0 300 300" fill="none" xmlns="http://www.w3.org/2000/svg">
<g clip-path="url(#clip0_1924_29039)">
<rect width="300" height="300" rx="16" fill="#172036"/>
<rect width="300" height="71" fill="#1D3044"/>
<rect y="229" width="300" height="71" fill="#1D3044"/>
<path d="M25.88 43V29H32C33.52 29 34.8533 29.2933 36 29.88C37.1467 30.4667 38.04 31.28 38.68 32.32C39.32 33.36 39.64 34.5867 39.64 36C39.64 37.4 39.32 38.6267 38.68 39.68C38.04 40.72 37.1467 41.5333 36 42.12C34.8533 42.7067 33.52 43 32 43H25.88ZM28.48 40.8H31.88C32.9333 40.8 33.84 40.6 34.6 40.2C35.3733 39.8 35.9667 39.24 36.38 38.52C36.8067 37.8 37.02 36.96 37.02 36C37.02 35.0267 36.8067 34.1867 36.38 33.48C35.9667 32.76 35.3733 32.2 34.6 31.8C33.84 31.4 32.9333 31.2 31.88 31.2H28.48V40.8ZM48.7434 43V40.84L48.6034 40.38V36.6C48.6034 35.8667 48.3834 35.3 47.9434 34.9C47.5034 34.4867 46.8368 34.28 45.9434 34.28C45.3434 34.28 44.7501 34.3733 44.1634 34.56C43.5901 34.7467 43.1034 35.0067 42.7034 35.34L41.7234 33.52C42.2968 33.08 42.9768 32.7533 43.7634 32.54C44.5634 32.3133 45.3901 32.2 46.2434 32.2C47.7901 32.2 48.9834 32.5733 49.8234 33.32C50.6768 34.0533 51.1034 35.1933 51.1034 36.74V43H48.7434ZM45.3834 43.14C44.5834 43.14 43.8834 43.0067 43.2834 42.74C42.6834 42.46 42.2168 42.08 41.8834 41.6C41.5634 41.1067 41.4034 40.5533 41.4034 39.94C41.4034 39.34 41.5434 38.8 41.8234 38.32C42.1168 37.84 42.5901 37.46 43.2434 37.18C43.8968 36.9 44.7634 36.76 45.8434 36.76H48.9434V38.42H46.0234C45.1701 38.42 44.5968 38.56 44.3034 38.84C44.0101 39.1067 43.8634 39.44 43.8634 39.84C43.8634 40.2933 44.0434 40.6533 44.4034 40.92C44.7634 41.1867 45.2634 41.32 45.9034 41.32C46.5168 41.32 47.0634 41.18 47.5434 40.9C48.0368 40.62 48.3901 40.2067 48.6034 39.66L49.0234 41.16C48.7834 41.7867 48.3501 42.2733 47.7234 42.62C47.1101 42.9667 46.3301 43.14 45.3834 43.14ZM54.3119 43V32.32H56.6919V35.26L56.4119 34.4C56.7319 33.68 57.2319 33.1333 57.9119 32.76C58.6052 32.3867 59.4652 32.2 60.4919 32.2V34.58C60.3852 34.5533 60.2852 34.54 60.1919 34.54C60.0985 34.5267 60.0052 34.52 59.9119 34.52C58.9652 34.52 58.2119 34.8 57.6519 35.36C57.0919 35.9067 56.8119 36.7267 56.8119 37.82V43H54.3119ZM64.6527 40.62L64.7127 37.48L70.2927 32.32H73.2927L68.5527 37.08L67.2327 38.18L64.6527 40.62ZM62.6127 43V28.16H65.1127V43H62.6127ZM70.6727 43L66.7727 38.18L68.3527 36.18L73.7127 43H70.6727Z" fill="#FAFAFA"/>
<rect x="24" y="245" width="196" height="40" rx="4" fill="#6AB3FF"/>
<rect x="24" y="91" width="255" height="16" rx="2" fill="#FAFAFA" fill-opacity="0.5"/>
<rect x="24" y="125" width="193" height="16" rx="2" fill="#FAFAFA" fill-opacity="0.5"/>
<rect x="24" y="159" width="160" height="16" rx="2" fill="#FAFAFA" fill-opacity="0.5"/>
<rect x="24" y="193" width="130" height="16" rx="2" fill="#FAFAFA" fill-opacity="0.5"/>
</g>
<defs>
<clipPath id="clip0_1924_29039">
<rect width="300" height="300" rx="16" fill="white"/>
</clipPath>
</defs>
</svg>
