<svg width="300" height="300" viewBox="0 0 300 300" fill="none" xmlns="http://www.w3.org/2000/svg">
<g clip-path="url(#clip0_1924_29064)">
<rect width="300" height="300" rx="16" fill="#222222"/>
<rect width="300" height="71" fill="black"/>
<rect y="229" width="300" height="71" fill="black"/>
<path d="M35.72 29H38.32V43H35.72V29ZM28.48 43H25.88V29H28.48V43ZM35.92 37H28.26V34.78H35.92V37ZM41.8314 43V32.32H44.3314V43H41.8314ZM43.0914 30.56C42.6247 30.56 42.2381 30.4133 41.9314 30.12C41.6381 29.8267 41.4914 29.4733 41.4914 29.06C41.4914 28.6333 41.6381 28.28 41.9314 28C42.2381 27.7067 42.6247 27.56 43.0914 27.56C43.5581 27.56 43.9381 27.7 44.2314 27.98C44.5381 28.2467 44.6914 28.5867 44.6914 29C44.6914 29.44 44.5447 29.8133 44.2514 30.12C43.9581 30.4133 43.5714 30.56 43.0914 30.56ZM52.4527 47.02C51.466 47.02 50.4993 46.8867 49.5527 46.62C48.6193 46.3667 47.8527 45.9933 47.2527 45.5L48.3727 43.62C48.8393 44.0067 49.426 44.3133 50.1327 44.54C50.8527 44.78 51.5793 44.9 52.3127 44.9C53.486 44.9 54.346 44.6267 54.8927 44.08C55.4393 43.5467 55.7127 42.74 55.7127 41.66V39.76L55.9127 37.34L55.8327 34.92V32.32H58.2127V41.38C58.2127 43.3133 57.7193 44.7333 56.7327 45.64C55.746 46.56 54.3193 47.02 52.4527 47.02ZM52.1327 42.52C51.1193 42.52 50.1993 42.3067 49.3727 41.88C48.5593 41.44 47.9127 40.8333 47.4327 40.06C46.966 39.2867 46.7327 38.38 46.7327 37.34C46.7327 36.3133 46.966 35.4133 47.4327 34.64C47.9127 33.8667 48.5593 33.2667 49.3727 32.84C50.1993 32.4133 51.1193 32.2 52.1327 32.2C53.0393 32.2 53.8527 32.38 54.5727 32.74C55.2927 33.1 55.866 33.66 56.2927 34.42C56.7327 35.18 56.9527 36.1533 56.9527 37.34C56.9527 38.5267 56.7327 39.5067 56.2927 40.28C55.866 41.04 55.2927 41.6067 54.5727 41.98C53.8527 42.34 53.0393 42.52 52.1327 42.52ZM52.5127 40.4C53.1393 40.4 53.6993 40.2733 54.1927 40.02C54.686 39.7533 55.066 39.3933 55.3327 38.94C55.6127 38.4733 55.7527 37.94 55.7527 37.34C55.7527 36.74 55.6127 36.2133 55.3327 35.76C55.066 35.2933 54.686 34.94 54.1927 34.7C53.6993 34.4467 53.1393 34.32 52.5127 34.32C51.886 34.32 51.3193 34.4467 50.8127 34.7C50.3193 34.94 49.9327 35.2933 49.6527 35.76C49.386 36.2133 49.2527 36.74 49.2527 37.34C49.2527 37.94 49.386 38.4733 49.6527 38.94C49.9327 39.3933 50.3193 39.7533 50.8127 40.02C51.3193 40.2733 51.886 40.4 52.5127 40.4ZM67.5594 32.2C68.4127 32.2 69.1727 32.3667 69.8394 32.7C70.5194 33.0333 71.0527 33.5467 71.4394 34.24C71.826 34.92 72.0194 35.8 72.0194 36.88V43H69.5194V37.2C69.5194 36.2533 69.2927 35.5467 68.8394 35.08C68.3994 34.6133 67.7794 34.38 66.9794 34.38C66.3927 34.38 65.8727 34.5 65.4194 34.74C64.966 34.98 64.6127 35.34 64.3594 35.82C64.1194 36.2867 63.9994 36.88 63.9994 37.6V43H61.4994V28.16H63.9994V35.2L63.4594 34.32C63.8327 33.64 64.3727 33.12 65.0794 32.76C65.7994 32.3867 66.626 32.2 67.5594 32.2ZM87.4381 43.2C86.3715 43.2 85.3781 43.0267 84.4581 42.68C83.5515 42.32 82.7581 41.82 82.0781 41.18C81.4115 40.5267 80.8915 39.76 80.5181 38.88C80.1448 38 79.9581 37.04 79.9581 36C79.9581 34.96 80.1448 34 80.5181 33.12C80.8915 32.24 81.4181 31.48 82.0981 30.84C82.7781 30.1867 83.5715 29.6867 84.4781 29.34C85.3848 28.98 86.3781 28.8 87.4581 28.8C88.6048 28.8 89.6515 29 90.5981 29.4C91.5448 29.7867 92.3448 30.3667 92.9981 31.14L91.3181 32.72C90.8115 32.1733 90.2448 31.7667 89.6181 31.5C88.9915 31.22 88.3115 31.08 87.5781 31.08C86.8448 31.08 86.1715 31.2 85.5581 31.44C84.9581 31.68 84.4315 32.02 83.9781 32.46C83.5381 32.9 83.1915 33.42 82.9381 34.02C82.6981 34.62 82.5781 35.28 82.5781 36C82.5781 36.72 82.6981 37.38 82.9381 37.98C83.1915 38.58 83.5381 39.1 83.9781 39.54C84.4315 39.98 84.9581 40.32 85.5581 40.56C86.1715 40.8 86.8448 40.92 87.5781 40.92C88.3115 40.92 88.9915 40.7867 89.6181 40.52C90.2448 40.24 90.8115 39.82 91.3181 39.26L92.9981 40.86C92.3448 41.62 91.5448 42.2 90.5981 42.6C89.6515 43 88.5981 43.2 87.4381 43.2ZM99.6588 43.14C98.5654 43.14 97.5921 42.9067 96.7388 42.44C95.8854 41.96 95.2121 41.3067 94.7188 40.48C94.2254 39.6533 93.9788 38.7133 93.9788 37.66C93.9788 36.5933 94.2254 35.6533 94.7188 34.84C95.2121 34.0133 95.8854 33.3667 96.7388 32.9C97.5921 32.4333 98.5654 32.2 99.6588 32.2C100.765 32.2 101.745 32.4333 102.599 32.9C103.465 33.3667 104.139 34.0067 104.619 34.82C105.112 35.6333 105.359 36.58 105.359 37.66C105.359 38.7133 105.112 39.6533 104.619 40.48C104.139 41.3067 103.465 41.96 102.599 42.44C101.745 42.9067 100.765 43.14 99.6588 43.14ZM99.6588 41C100.272 41 100.819 40.8667 101.299 40.6C101.779 40.3333 102.152 39.9467 102.419 39.44C102.699 38.9333 102.839 38.34 102.839 37.66C102.839 36.9667 102.699 36.3733 102.419 35.88C102.152 35.3733 101.779 34.9867 101.299 34.72C100.819 34.4533 100.279 34.32 99.6788 34.32C99.0654 34.32 98.5188 34.4533 98.0388 34.72C97.5721 34.9867 97.1988 35.3733 96.9188 35.88C96.6388 36.3733 96.4988 36.9667 96.4988 37.66C96.4988 38.34 96.6388 38.9333 96.9188 39.44C97.1988 39.9467 97.5721 40.3333 98.0388 40.6C98.5188 40.8667 99.0588 41 99.6588 41ZM113.809 32.2C114.663 32.2 115.423 32.3667 116.089 32.7C116.769 33.0333 117.303 33.5467 117.689 34.24C118.076 34.92 118.269 35.8 118.269 36.88V43H115.769V37.2C115.769 36.2533 115.543 35.5467 115.089 35.08C114.649 34.6133 114.029 34.38 113.229 34.38C112.643 34.38 112.123 34.5 111.669 34.74C111.216 34.98 110.863 35.34 110.609 35.82C110.369 36.2867 110.249 36.88 110.249 37.6V43H107.749V32.32H110.129V35.2L109.709 34.32C110.083 33.64 110.623 33.12 111.329 32.76C112.049 32.3867 112.876 32.2 113.809 32.2ZM125.461 43.14C124.287 43.14 123.381 42.84 122.741 42.24C122.101 41.6267 121.781 40.7267 121.781 39.54V29.96H124.281V39.48C124.281 39.9867 124.407 40.38 124.661 40.66C124.927 40.94 125.294 41.08 125.761 41.08C126.321 41.08 126.787 40.9333 127.161 40.64L127.861 42.42C127.567 42.66 127.207 42.84 126.781 42.96C126.354 43.08 125.914 43.14 125.461 43.14ZM120.021 34.4V32.4H127.141V34.4H120.021ZM129.917 43V32.32H132.297V35.26L132.017 34.4C132.337 33.68 132.837 33.1333 133.517 32.76C134.211 32.3867 135.071 32.2 136.097 32.2V34.58C135.991 34.5533 135.891 34.54 135.797 34.54C135.704 34.5267 135.611 34.52 135.517 34.52C134.571 34.52 133.817 34.8 133.257 35.36C132.697 35.9067 132.417 36.7267 132.417 37.82V43H129.917ZM144.036 43V40.84L143.896 40.38V36.6C143.896 35.8667 143.676 35.3 143.236 34.9C142.796 34.4867 142.13 34.28 141.236 34.28C140.636 34.28 140.043 34.3733 139.456 34.56C138.883 34.7467 138.396 35.0067 137.996 35.34L137.016 33.52C137.59 33.08 138.27 32.7533 139.056 32.54C139.856 32.3133 140.683 32.2 141.536 32.2C143.083 32.2 144.276 32.5733 145.116 33.32C145.97 34.0533 146.396 35.1933 146.396 36.74V43H144.036ZM140.676 43.14C139.876 43.14 139.176 43.0067 138.576 42.74C137.976 42.46 137.51 42.08 137.176 41.6C136.856 41.1067 136.696 40.5533 136.696 39.94C136.696 39.34 136.836 38.8 137.116 38.32C137.41 37.84 137.883 37.46 138.536 37.18C139.19 36.9 140.056 36.76 141.136 36.76H144.236V38.42H141.316C140.463 38.42 139.89 38.56 139.596 38.84C139.303 39.1067 139.156 39.44 139.156 39.84C139.156 40.2933 139.336 40.6533 139.696 40.92C140.056 41.1867 140.556 41.32 141.196 41.32C141.81 41.32 142.356 41.18 142.836 40.9C143.33 40.62 143.683 40.2067 143.896 39.66L144.316 41.16C144.076 41.7867 143.643 42.2733 143.016 42.62C142.403 42.9667 141.623 43.14 140.676 43.14ZM152.905 43.14C152.012 43.14 151.152 43.0267 150.325 42.8C149.512 42.56 148.865 42.2733 148.385 41.94L149.345 40.04C149.825 40.3467 150.398 40.6 151.065 40.8C151.732 41 152.398 41.1 153.065 41.1C153.852 41.1 154.418 40.9933 154.765 40.78C155.125 40.5667 155.305 40.28 155.305 39.92C155.305 39.6267 155.185 39.4067 154.945 39.26C154.705 39.1 154.392 38.98 154.005 38.9C153.618 38.82 153.185 38.7467 152.705 38.68C152.238 38.6133 151.765 38.5267 151.285 38.42C150.818 38.3 150.392 38.1333 150.005 37.92C149.618 37.6933 149.305 37.3933 149.065 37.02C148.825 36.6467 148.705 36.1533 148.705 35.54C148.705 34.86 148.898 34.2733 149.285 33.78C149.672 33.2733 150.212 32.8867 150.905 32.62C151.612 32.34 152.445 32.2 153.405 32.2C154.125 32.2 154.852 32.28 155.585 32.44C156.318 32.6 156.925 32.8267 157.405 33.12L156.445 35.02C155.938 34.7133 155.425 34.5067 154.905 34.4C154.398 34.28 153.892 34.22 153.385 34.22C152.625 34.22 152.058 34.3333 151.685 34.56C151.325 34.7867 151.145 35.0733 151.145 35.42C151.145 35.74 151.265 35.98 151.505 36.14C151.745 36.3 152.058 36.4267 152.445 36.52C152.832 36.6133 153.258 36.6933 153.725 36.76C154.205 36.8133 154.678 36.9 155.145 37.02C155.612 37.14 156.038 37.3067 156.425 37.52C156.825 37.72 157.145 38.0067 157.385 38.38C157.625 38.7533 157.745 39.24 157.745 39.84C157.745 40.5067 157.545 41.0867 157.145 41.58C156.758 42.0733 156.205 42.46 155.485 42.74C154.765 43.0067 153.905 43.14 152.905 43.14ZM163.918 43.14C162.744 43.14 161.838 42.84 161.198 42.24C160.558 41.6267 160.238 40.7267 160.238 39.54V29.96H162.738V39.48C162.738 39.9867 162.864 40.38 163.118 40.66C163.384 40.94 163.751 41.08 164.218 41.08C164.778 41.08 165.244 40.9333 165.618 40.64L166.318 42.42C166.024 42.66 165.664 42.84 165.238 42.96C164.811 43.08 164.371 43.14 163.918 43.14ZM158.478 34.4V32.4H165.598V34.4H158.478ZM174.142 43V29H180.262C181.782 29 183.115 29.2933 184.262 29.88C185.408 30.4667 186.302 31.28 186.942 32.32C187.582 33.36 187.902 34.5867 187.902 36C187.902 37.4 187.582 38.6267 186.942 39.68C186.302 40.72 185.408 41.5333 184.262 42.12C183.115 42.7067 181.782 43 180.262 43H174.142ZM176.742 40.8H180.142C181.195 40.8 182.102 40.6 182.862 40.2C183.635 39.8 184.228 39.24 184.642 38.52C185.068 37.8 185.282 36.96 185.282 36C185.282 35.0267 185.068 34.1867 184.642 33.48C184.228 32.76 183.635 32.2 182.862 31.8C182.102 31.4 181.195 31.2 180.142 31.2H176.742V40.8ZM197.005 43V40.84L196.865 40.38V36.6C196.865 35.8667 196.645 35.3 196.205 34.9C195.765 34.4867 195.098 34.28 194.205 34.28C193.605 34.28 193.012 34.3733 192.425 34.56C191.852 34.7467 191.365 35.0067 190.965 35.34L189.985 33.52C190.558 33.08 191.238 32.7533 192.025 32.54C192.825 32.3133 193.652 32.2 194.505 32.2C196.052 32.2 197.245 32.5733 198.085 33.32C198.938 34.0533 199.365 35.1933 199.365 36.74V43H197.005ZM193.645 43.14C192.845 43.14 192.145 43.0067 191.545 42.74C190.945 42.46 190.478 42.08 190.145 41.6C189.825 41.1067 189.665 40.5533 189.665 39.94C189.665 39.34 189.805 38.8 190.085 38.32C190.378 37.84 190.852 37.46 191.505 37.18C192.158 36.9 193.025 36.76 194.105 36.76H197.205V38.42H194.285C193.432 38.42 192.858 38.56 192.565 38.84C192.272 39.1067 192.125 39.44 192.125 39.84C192.125 40.2933 192.305 40.6533 192.665 40.92C193.025 41.1867 193.525 41.32 194.165 41.32C194.778 41.32 195.325 41.18 195.805 40.9C196.298 40.62 196.652 40.2067 196.865 39.66L197.285 41.16C197.045 41.7867 196.612 42.2733 195.985 42.62C195.372 42.9667 194.592 43.14 193.645 43.14ZM202.574 43V32.32H204.954V35.26L204.674 34.4C204.994 33.68 205.494 33.1333 206.174 32.76C206.867 32.3867 207.727 32.2 208.754 32.2V34.58C208.647 34.5533 208.547 34.54 208.454 34.54C208.36 34.5267 208.267 34.52 208.174 34.52C207.227 34.52 206.474 34.8 205.914 35.36C205.354 35.9067 205.074 36.7267 205.074 37.82V43H202.574ZM212.914 40.62L212.974 37.48L218.554 32.32H221.554L216.814 37.08L215.494 38.18L212.914 40.62ZM210.874 43V28.16H213.374V43H210.874ZM218.934 43L215.034 38.18L216.614 36.18L221.974 43H218.934Z" fill="white"/>
<rect x="24" y="245" width="196" height="40" rx="4" fill="#54A6FB"/>
<rect x="24" y="91" width="255" height="16" rx="2" fill="white"/>
<rect x="24" y="125" width="193" height="16" rx="2" fill="white"/>
<rect x="24" y="159" width="160" height="16" rx="2" fill="white"/>
<rect x="24" y="193" width="130" height="16" rx="2" fill="white"/>
</g>
<defs>
<clipPath id="clip0_1924_29064">
<rect width="300" height="300" rx="16" fill="white"/>
</clipPath>
</defs>
</svg>
