<svg width="300" height="300" viewBox="0 0 300 300" fill="none" xmlns="http://www.w3.org/2000/svg">
<g clip-path="url(#clip0_1924_29054)">
<rect width="300" height="300" rx="16" fill="white"/>
<rect width="300" height="71" fill="#FAFAFA"/>
<rect y="229" width="300" height="71" fill="#FAFAFA"/>
<path d="M25.88 43V29H28.48V40.8H35.8V43H25.88ZM37.6127 43V32.32H40.1127V43H37.6127ZM38.8727 30.56C38.406 30.56 38.0193 30.4133 37.7127 30.12C37.4193 29.8267 37.2727 29.4733 37.2727 29.06C37.2727 28.6333 37.4193 28.28 37.7127 28C38.0193 27.7067 38.406 27.56 38.8727 27.56C39.3393 27.56 39.7193 27.7 40.0127 27.98C40.3193 28.2467 40.4727 28.5867 40.4727 29C40.4727 29.44 40.326 29.8133 40.0327 30.12C39.7393 30.4133 39.3527 30.56 38.8727 30.56ZM48.2339 47.02C47.2472 47.02 46.2806 46.8867 45.3339 46.62C44.4006 46.3667 43.6339 45.9933 43.0339 45.5L44.1539 43.62C44.6206 44.0067 45.2072 44.3133 45.9139 44.54C46.6339 44.78 47.3606 44.9 48.0939 44.9C49.2672 44.9 50.1272 44.6267 50.6739 44.08C51.2206 43.5467 51.4939 42.74 51.4939 41.66V39.76L51.6939 37.34L51.6139 34.92V32.32H53.9939V41.38C53.9939 43.3133 53.5006 44.7333 52.5139 45.64C51.5272 46.56 50.1006 47.02 48.2339 47.02ZM47.9139 42.52C46.9006 42.52 45.9806 42.3067 45.1539 41.88C44.3406 41.44 43.6939 40.8333 43.2139 40.06C42.7472 39.2867 42.5139 38.38 42.5139 37.34C42.5139 36.3133 42.7472 35.4133 43.2139 34.64C43.6939 33.8667 44.3406 33.2667 45.1539 32.84C45.9806 32.4133 46.9006 32.2 47.9139 32.2C48.8206 32.2 49.6339 32.38 50.3539 32.74C51.0739 33.1 51.6472 33.66 52.0739 34.42C52.5139 35.18 52.7339 36.1533 52.7339 37.34C52.7339 38.5267 52.5139 39.5067 52.0739 40.28C51.6472 41.04 51.0739 41.6067 50.3539 41.98C49.6339 42.34 48.8206 42.52 47.9139 42.52ZM48.2939 40.4C48.9206 40.4 49.4806 40.2733 49.9739 40.02C50.4672 39.7533 50.8472 39.3933 51.1139 38.94C51.3939 38.4733 51.5339 37.94 51.5339 37.34C51.5339 36.74 51.3939 36.2133 51.1139 35.76C50.8472 35.2933 50.4672 34.94 49.9739 34.7C49.4806 34.4467 48.9206 34.32 48.2939 34.32C47.6672 34.32 47.1006 34.4467 46.5939 34.7C46.1006 34.94 45.7139 35.2933 45.4339 35.76C45.1672 36.2133 45.0339 36.74 45.0339 37.34C45.0339 37.94 45.1672 38.4733 45.4339 38.94C45.7139 39.3933 46.1006 39.7533 46.5939 40.02C47.1006 40.2733 47.6672 40.4 48.2939 40.4ZM63.3406 32.2C64.194 32.2 64.954 32.3667 65.6206 32.7C66.3006 33.0333 66.834 33.5467 67.2206 34.24C67.6073 34.92 67.8006 35.8 67.8006 36.88V43H65.3006V37.2C65.3006 36.2533 65.074 35.5467 64.6206 35.08C64.1806 34.6133 63.5606 34.38 62.7606 34.38C62.174 34.38 61.654 34.5 61.2006 34.74C60.7473 34.98 60.394 35.34 60.1406 35.82C59.9006 36.2867 59.7806 36.88 59.7806 37.6V43H57.2806V28.16H59.7806V35.2L59.2406 34.32C59.614 33.64 60.154 33.12 60.8606 32.76C61.5806 32.3867 62.4073 32.2 63.3406 32.2ZM74.992 43.14C73.8187 43.14 72.912 42.84 72.272 42.24C71.632 41.6267 71.312 40.7267 71.312 39.54V29.96H73.812V39.48C73.812 39.9867 73.9387 40.38 74.192 40.66C74.4587 40.94 74.8254 41.08 75.292 41.08C75.852 41.08 76.3187 40.9333 76.692 40.64L77.392 42.42C77.0987 42.66 76.7387 42.84 76.312 42.96C75.8854 43.08 75.4454 43.14 74.992 43.14ZM69.552 34.4V32.4H76.672V34.4H69.552Z" fill="#666666"/>
<rect x="24" y="245" width="196" height="40" rx="4" fill="#54A6FB"/>
<rect x="24" y="91" width="255" height="16" rx="2" fill="#666666"/>
<rect x="24" y="125" width="193" height="16" rx="2" fill="#666666"/>
<rect x="24" y="159" width="160" height="16" rx="2" fill="#666666"/>
<rect x="24" y="193" width="130" height="16" rx="2" fill="#666666"/>
</g>
<defs>
<clipPath id="clip0_1924_29054">
<rect width="300" height="300" rx="16" fill="white"/>
</clipPath>
</defs>
</svg>
