<svg width="128" height="128" viewBox="0 0 128 128" fill="none" xmlns="http://www.w3.org/2000/svg">
<rect x="8" y="18" width="83" height="12" rx="2" fill="#54A6FB"/>
<rect x="8" y="38" width="12" height="12" rx="2" fill="#A6CDF6"/>
<rect x="24.6665" y="38" width="12" height="12" rx="2" fill="#A6CDF6"/>
<rect x="41.3335" y="38" width="12" height="12" rx="2" fill="#A6CDF6"/>
<rect x="58" y="38" width="12" height="12" rx="2" fill="#A6CDF6"/>
<rect x="74.6665" y="38" width="12" height="12" rx="2" fill="#A6CDF6"/>
<rect x="91.3335" y="38" width="12" height="12" rx="2" fill="#A6CDF6"/>
<rect x="108" y="38" width="12" height="12" rx="2" fill="#A6CDF6"/>
<rect x="8" y="58" width="12" height="12" rx="2" fill="#A6CDF6"/>
<rect x="24.6665" y="58" width="12" height="12" rx="2" fill="#A6CDF6"/>
<rect x="41.3335" y="58" width="12" height="12" rx="2" fill="#A6CDF6"/>
<rect x="58" y="58" width="12" height="12" rx="2" fill="#54A6FB"/>
<rect x="74.6665" y="58" width="12" height="12" rx="2" fill="#A6CDF6"/>
<rect x="91.3335" y="58" width="12" height="12" rx="2" fill="#A6CDF6"/>
<rect x="108" y="58" width="12" height="12" rx="2" fill="#A6CDF6"/>
<rect x="8" y="78" width="12" height="12" rx="2" fill="#A6CDF6"/>
<rect x="24.6665" y="78" width="12" height="12" rx="2" fill="#A6CDF6"/>
<rect x="41.3335" y="78" width="12" height="12" rx="2" fill="#A6CDF6"/>
<rect x="58" y="78" width="12" height="12" rx="2" fill="#A6CDF6"/>
<rect x="74.6665" y="78" width="12" height="12" rx="2" fill="#A6CDF6"/>
<rect x="91.3335" y="78" width="12" height="12" rx="2" fill="#A6CDF6"/>
<rect x="108" y="78" width="12" height="12" rx="2" fill="#A6CDF6"/>
<rect x="8" y="98" width="12" height="12" rx="2" fill="#A6CDF6"/>
<rect x="24.6665" y="98" width="12" height="12" rx="2" fill="#A6CDF6"/>
<rect x="41.3335" y="98" width="12" height="12" rx="2" fill="#A6CDF6"/>
<rect x="58" y="98" width="12" height="12" rx="2" fill="#A6CDF6"/>
<rect x="1" y="1" width="126" height="126" rx="7" stroke="#54A6FB" stroke-width="2"/>
</svg>
