<svg width="14" height="14" viewBox="0 0 14 14" fill="none" xmlns="http://www.w3.org/2000/svg">
<path d="M6.06665 10.0668L10.7666 5.36683L9.83331 4.4335L6.06665 8.20016L4.16665 6.30016L3.23331 7.2335L6.06665 10.0668ZM6.99998 13.6668C6.07776 13.6668 5.21109 13.4918 4.39998 13.1418C3.58887 12.7918 2.88331 12.3168 2.28331 11.7168C1.68331 11.1168 1.20831 10.4113 0.858313 9.60016C0.508313 8.78905 0.333313 7.92238 0.333313 7.00016C0.333313 6.07794 0.508313 5.21127 0.858313 4.40016C1.20831 3.58905 1.68331 2.8835 2.28331 2.2835C2.88331 1.6835 3.58887 1.2085 4.39998 0.858496C5.21109 0.508496 6.07776 0.333496 6.99998 0.333496C7.9222 0.333496 8.78887 0.508496 9.59998 0.858496C10.4111 1.2085 11.1166 1.6835 11.7166 2.2835C12.3166 2.8835 12.7916 3.58905 13.1416 4.40016C13.4916 5.21127 13.6666 6.07794 13.6666 7.00016C13.6666 7.92238 13.4916 8.78905 13.1416 9.60016C12.7916 10.4113 12.3166 11.1168 11.7166 11.7168C11.1166 12.3168 10.4111 12.7918 9.59998 13.1418C8.78887 13.4918 7.9222 13.6668 6.99998 13.6668ZM6.99998 12.3335C8.48887 12.3335 9.74998 11.8168 10.7833 10.7835C11.8166 9.75016 12.3333 8.48905 12.3333 7.00016C12.3333 5.51127 11.8166 4.25016 10.7833 3.21683C9.74998 2.1835 8.48887 1.66683 6.99998 1.66683C5.51109 1.66683 4.24998 2.1835 3.21665 3.21683C2.18331 4.25016 1.66665 5.51127 1.66665 7.00016C1.66665 8.48905 2.18331 9.75016 3.21665 10.7835C4.24998 11.8168 5.51109 12.3335 6.99998 12.3335Z" fill="#666666"/>
</svg>
