<svg width="128" height="128" viewBox="0 0 128 128" fill="none" xmlns="http://www.w3.org/2000/svg">
<rect x="17" y="37.9817" width="94" height="66" rx="5" stroke="#54A6FB" stroke-width="2"/>
<path fill-rule="evenodd" clip-rule="evenodd" d="M27 31.4817H100C102.209 31.4817 104 33.2726 104 35.4817V35.4817C104 35.7578 104.224 35.9817 104.5 35.9817H105.5V35.9817C105.77 35.9817 106 35.7712 106 35.5017V35.4817C106 32.168 103.314 29.4817 100 29.4817H27C23.6863 29.4817 21 32.168 21 35.4817V35.5017C21 35.7712 21.2305 35.9817 21.5 35.9817V35.9817H22.5C22.7761 35.9817 23 35.7578 23 35.4817V35.4817C23 33.2726 24.7909 31.4817 27 31.4817Z" fill="#54A6FB"/>
<path fill-rule="evenodd" clip-rule="evenodd" d="M33.9863 25.0186H92.9863C94.7814 25.0186 96.3003 26.201 96.8066 27.8295C96.9147 28.1771 97.2163 28.448 97.5804 28.448V28.448V28.448C98.2779 28.448 98.9233 27.8982 98.7159 27.2322C97.9556 24.7909 95.6779 23.0186 92.9863 23.0186H33.9863C31.2947 23.0186 29.017 24.7909 28.2567 27.2322C28.0493 27.8982 28.6946 28.448 29.3922 28.448V28.448V28.448C29.7562 28.448 30.0579 28.1771 30.166 27.8295C30.6723 26.201 32.1912 25.0186 33.9863 25.0186Z" fill="#54A6FB"/>
<path d="M16.2909 88.2766C15.9015 88.6683 15.9033 89.3014 16.2949 89.6908C16.6866 90.0802 17.3198 90.0784 17.7091 89.6867L16.2909 88.2766ZM46.8269 58.9817L47.5361 58.2766L46.8269 57.5634L46.1178 58.2766L46.8269 58.9817ZM76.6538 88.9817L75.9447 89.6867L76.6538 90.4L77.363 89.6867L76.6538 88.9817ZM93.8269 71.709L94.5361 71.0039L93.8269 70.2906L93.1178 71.0039L93.8269 71.709ZM17.7091 89.6867L47.5361 59.6867L46.1178 58.2766L16.2909 88.2766L17.7091 89.6867ZM46.1178 59.6867L75.9447 89.6867L77.363 88.2766L47.5361 58.2766L46.1178 59.6867ZM77.363 89.6867L94.5361 72.414L93.1178 71.0039L75.9447 88.2766L77.363 89.6867ZM93.1178 72.414L110.291 89.6867L111.709 88.2766L94.5361 71.0039L93.1178 72.414Z" fill="#54A6FB"/>
<path d="M70 56.4817C70 60.1376 67.2498 62.9817 64 62.9817C60.7502 62.9817 58 60.1376 58 56.4817C58 52.8257 60.7502 49.9817 64 49.9817C67.2498 49.9817 70 52.8257 70 56.4817Z" stroke="#54A6FB" stroke-width="2"/>
<rect x="1" y="1" width="126" height="126" rx="7" stroke="#54A6FB" stroke-width="2"/>
</svg>
