<svg width="60" height="60" viewBox="0 0 60 60" fill="none" xmlns="http://www.w3.org/2000/svg">
    <path d="M23.3333 33.3333H3.33333C2.44928 33.3333 1.60143 33.6845 0.976311 34.3096C0.351189 34.9348 0 35.7826 0 36.6667V56.6667C0 57.5507 0.351189 58.3986 0.976311 59.0237C1.60143 59.6488 2.44928 60 3.33333 60H23.3333C24.2174 60 25.0652 59.6488 25.6904 59.0237C26.3155 58.3986 26.6667 57.5507 26.6667 56.6667V36.6667C26.6667 35.7826 26.3155 34.9348 25.6904 34.3096C25.0652 33.6845 24.2174 33.3333 23.3333 33.3333ZM20 53.3333H6.66667V40H20V53.3333ZM56.6667 0H36.6667C35.7826 0 34.9348 0.351189 34.3096 0.976311C33.6845 1.60143 33.3333 2.44928 33.3333 3.33333V23.3333C33.3333 24.2174 33.6845 25.0652 34.3096 25.6904C34.9348 26.3155 35.7826 26.6667 36.6667 26.6667H56.6667C57.5507 26.6667 58.3986 26.3155 59.0237 25.6904C59.6488 25.0652 60 24.2174 60 23.3333V3.33333C60 2.44928 59.6488 1.60143 59.0237 0.976311C58.3986 0.351189 57.5507 0 56.6667 0ZM53.3333 20H40V6.66667H53.3333V20ZM56.6667 43.3333H50V36.6667C50 35.7826 49.6488 34.9348 49.0237 34.3096C48.3986 33.6845 47.5507 33.3333 46.6667 33.3333C45.7826 33.3333 44.9348 33.6845 44.3096 34.3096C43.6845 34.9348 43.3333 35.7826 43.3333 36.6667V43.3333H36.6667C35.7826 43.3333 34.9348 43.6845 34.3096 44.3096C33.6845 44.9348 33.3333 45.7826 33.3333 46.6667C33.3333 47.5507 33.6845 48.3986 34.3096 49.0237C34.9348 49.6488 35.7826 50 36.6667 50H43.3333V56.6667C43.3333 57.5507 43.6845 58.3986 44.3096 59.0237C44.9348 59.6488 45.7826 60 46.6667 60C47.5507 60 48.3986 59.6488 49.0237 59.0237C49.6488 58.3986 50 57.5507 50 56.6667V50H56.6667C57.5507 50 58.3986 49.6488 59.0237 49.0237C59.6488 48.3986 60 47.5507 60 46.6667C60 45.7826 59.6488 44.9348 59.0237 44.3096C58.3986 43.6845 57.5507 43.3333 56.6667 43.3333ZM23.3333 0H3.33333C2.44928 0 1.60143 0.351189 0.976311 0.976311C0.351189 1.60143 0 2.44928 0 3.33333V23.3333C0 24.2174 0.351189 25.0652 0.976311 25.6904C1.60143 26.3155 2.44928 26.6667 3.33333 26.6667H23.3333C24.2174 26.6667 25.0652 26.3155 25.6904 25.6904C26.3155 25.0652 26.6667 24.2174 26.6667 23.3333V3.33333C26.6667 2.44928 26.3155 1.60143 25.6904 0.976311C25.0652 0.351189 24.2174 0 23.3333 0ZM20 20H6.66667V6.66667H20V20Z" fill="#ffffff"/>
</svg>