<svg width="80" height="80" viewBox="0 0 80 80" fill="none" xmlns="http://www.w3.org/2000/svg">
    <path d="M69.04 -0.193359C67.8861 -0.193359 66.7877 0.329718 65.8646 1.25279L63.6554 3.36664L76.6338 16.3451L78.7508 14.1359C80.5969 12.2897 80.5969 9.53895 78.7508 7.69279L72.3077 1.24972C71.3846 0.326641 70.1938 -0.193359 69.04 -0.193359ZM61.5384 5.19433L58.1723 7.9851L72.0185 21.8313L75.0954 18.7543L61.5384 5.19433ZM56.3446 10.1943L28.56 37.6959C28.4193 37.812 28.2896 37.9408 28.1723 38.0805L27.9815 38.1759C27.6459 38.5605 27.414 39.0243 27.3077 39.5236L23.5569 52.6959C23.3962 53.2172 23.3806 53.7726 23.512 54.3021C23.6433 54.8317 23.9166 55.3154 24.3024 55.7011C24.6882 56.0869 25.1719 56.3602 25.7014 56.4916C26.231 56.6229 26.7863 56.6074 27.3077 56.4466L40.48 52.6959C40.9173 52.5921 41.3258 52.3915 41.6752 52.1087C42.0245 51.8259 42.3059 51.4682 42.4985 51.062L69.8092 24.0405L64.6154 18.462V18.7513L60.96 15.0959H61.2492L56.3446 10.1943ZM2.50153 12.3082C1.7887 12.4438 1.14671 12.8269 0.688976 13.3899C0.231242 13.9529 -0.0127892 14.6596 -1.07397e-05 15.3851V76.9236C-1.07397e-05 77.7396 0.324164 78.5222 0.901199 79.0993C1.47823 79.6763 2.26086 80.0005 3.07691 80.0005H64.6154C65.4314 80.0005 66.2141 79.6763 66.7911 79.0993C67.3681 78.5222 67.6923 77.7396 67.6923 76.9236V43.0774C67.6923 42.2614 67.3681 41.4787 66.7911 40.9017C66.2141 40.3247 65.4314 40.0005 64.6154 40.0005C63.7993 40.0005 63.0167 40.3247 62.4397 40.9017C61.8626 41.4787 61.5384 42.2614 61.5384 43.0774V73.8466H6.15384V18.462H36.9231C37.7391 18.462 38.5217 18.1379 39.0988 17.5608C39.6758 16.9838 40 16.2012 40 15.3851C40 14.5691 39.6758 13.7864 39.0988 13.2094C38.5217 12.6324 37.7391 12.3082 36.9231 12.3082H3.07691C2.98056 12.3036 2.88404 12.3036 2.78768 12.3082C2.69132 12.3036 2.59481 12.3036 2.49845 12.3082H2.50153ZM32.6954 42.502L36.9261 42.7882L37.2154 47.4036L32.9846 48.6528L31.3508 47.022L32.6954 42.502Z" fill="#ffffff"/>
</svg>