<svg width="60" height="68" viewBox="0 0 60 68" fill="none" xmlns="http://www.w3.org/2000/svg">
    <path d="M50 47.5993C47.4667 47.5993 45.2 48.5994 43.4667 50.166L19.7 36.3327C19.8667 35.566 20 34.7994 20 33.9994C20 33.1994 19.8667 32.4327 19.7 31.666L43.2 17.966C45 19.6327 47.3667 20.666 50 20.666C55.5333 20.666 60 16.1993 60 10.666C60 5.13268 55.5333 0.666016 50 0.666016C44.4667 0.666016 40 5.13268 40 10.666C40 11.466 40.1333 12.2327 40.3 12.9993L16.8 26.6994C15 25.0327 12.6333 23.9993 10 23.9993C4.46667 23.9993 0 28.466 0 33.9994C0 39.5327 4.46667 43.9994 10 43.9994C12.6333 43.9994 15 42.966 16.8 41.2994L40.5333 55.166C40.3667 55.866 40.2667 56.5993 40.2667 57.3327C40.2667 62.6994 44.6333 67.066 50 67.066C55.3667 67.066 59.7333 62.6994 59.7333 57.3327C59.7333 51.966 55.3667 47.5993 50 47.5993ZM50 7.33268C51.8333 7.33268 53.3333 8.83268 53.3333 10.666C53.3333 12.4993 51.8333 13.9993 50 13.9993C48.1667 13.9993 46.6667 12.4993 46.6667 10.666C46.6667 8.83268 48.1667 7.33268 50 7.33268ZM10 37.3327C8.16667 37.3327 6.66667 35.8327 6.66667 33.9994C6.66667 32.166 8.16667 30.666 10 30.666C11.8333 30.666 13.3333 32.166 13.3333 33.9994C13.3333 35.8327 11.8333 37.3327 10 37.3327ZM50 60.7327C48.1667 60.7327 46.6667 59.2327 46.6667 57.3994C46.6667 55.566 48.1667 54.066 50 54.066C51.8333 54.066 53.3333 55.566 53.3333 57.3994C53.3333 59.2327 51.8333 60.7327 50 60.7327Z" fill="#ffffff"/>
</svg>