<svg width="80" height="80" viewBox="0 0 80 80" fill="none" xmlns="http://www.w3.org/2000/svg">
    <path d="M78.63 74.204L71.6233 67.2007C73.0993 64.9475 74.0046 62.3689 74.261 59.6876C74.5174 57.0062 74.1172 54.3028 73.095 51.8107C72.0728 49.3187 70.4593 47.1129 68.3938 45.384C66.3284 43.6551 63.8731 42.455 61.24 41.8873L61.13 41.8673V28.304C61.1306 27.5175 60.8558 26.7557 60.3533 26.1507L60.3567 26.1573V26.1407C60.2935 26.0642 60.2268 25.9908 60.1567 25.9207L60.13 25.8907L60.04 25.8007L35.24 1.00068C35.171 0.931674 35.0987 0.866042 35.0233 0.80401L34.9367 0.74401C34.8825 0.69994 34.827 0.657694 34.77 0.617344L34.6867 0.557344L34.5067 0.44401L34.43 0.40401C34.3544 0.359566 34.2711 0.318455 34.18 0.280677L34.0733 0.237344L33.9033 0.177344L33.7833 0.140677L33.59 0.0906771L33.4967 0.0706771C33.402 0.051109 33.3063 0.0366437 33.21 0.0273438H3.38333C2.48882 0.0308341 1.63179 0.387043 0.998338 1.01863C0.364882 1.65021 0.00613807 2.50618 0 3.40068L0 71.324C0.000869875 72.2223 0.357183 73.0837 0.991112 73.7201C1.62504 74.3566 2.48507 74.7163 3.38333 74.7207H57.75C61.0002 74.7264 64.179 73.7669 66.8833 71.964L66.8233 72.0007L73.83 79.0073C74.476 79.595 75.3235 79.9113 76.1965 79.8905C77.0696 79.8698 77.9011 79.5135 78.5184 78.8958C79.1357 78.2781 79.4913 77.4463 79.5115 76.5733C79.5317 75.7002 79.2148 74.8529 78.6267 74.2073L78.63 74.2107V74.204ZM67.5467 58.114C67.5469 59.4025 67.2933 60.6784 66.8004 61.8689C66.3076 63.0594 65.585 64.1411 64.6741 65.0524C63.7631 65.9636 62.6816 66.6866 61.4913 67.1798C60.301 67.6731 59.0252 67.9271 57.7367 67.9273C56.4482 67.9276 55.1723 67.674 53.9818 67.1811C52.7913 66.6882 51.7095 65.9657 50.7983 65.0547C49.887 64.1438 49.1641 63.0623 48.6708 61.872C48.1776 60.6817 47.9235 59.4058 47.9233 58.1173C47.9224 55.5151 48.9553 53.0191 50.7947 51.1785C52.6342 49.3378 55.1294 48.3032 57.7317 48.3023C60.3339 48.3015 62.8299 49.3343 64.6705 51.1738C66.5112 53.0132 67.5458 55.5118 67.5467 58.114ZM36.2267 11.594L49.5367 24.9073H36.2267V11.594ZM6.79333 6.79401H29.4367V28.304C29.4367 30.1807 30.9567 31.7007 32.8333 31.7007H54.3433V41.8673C46.75 43.4907 41.1367 50.144 41.1367 58.1107C41.1367 61.8073 42.3433 65.2207 44.3867 67.9773L44.3533 67.934H6.79L6.79333 6.79401Z" fill="#ffffff"/>
</svg>