<svg width="128" height="128" viewBox="0 0 128 128" fill="none" xmlns="http://www.w3.org/2000/svg">
<path d="M48.25 18.757L22 41.5981L22 111L48.25 88.1589M48.25 18.757V88.1589M48.25 18.757L54.5 22.5M79.75 39.8411L106 17V86.4019L79.75 109.243M79.75 39.8411V109.243M79.75 39.8411L71.5 34M79.75 109.243L48.25 88.1589" stroke="#A6CDF6" stroke-width="8"/>
<path fill-rule="evenodd" clip-rule="evenodd" d="M48.6457 37.8123C46.9676 35.1352 46 31.9855 46 28.6147C46 18.8864 54.0589 11 64 11C73.9411 11 82 18.8864 82 28.6147C82 31.9854 81.0325 35.135 79.3545 37.812L65.6195 56.7653C64.821 57.8671 63.179 57.8671 62.3805 56.7653L48.6457 37.8123ZM63.9944 37.422C59.0264 37.419 55 33.477 55 28.6147C55 23.7505 59.0294 19.8073 64 19.8073C68.9706 19.8073 73 23.7505 73 28.6147C73 33.477 68.9736 37.419 64.0056 37.422C64.0037 37.422 64.0019 37.422 64 37.422C63.9981 37.422 63.9963 37.422 63.9944 37.422Z" fill="#54A6FB"/>
<rect x="1" y="1" width="126" height="126" rx="7" stroke="#54A6FB" stroke-width="2"/>
</svg>
