<svg width="24" height="24" viewBox="0 0 24 24" fill="none" xmlns="http://www.w3.org/2000/svg">
<path d="M10.7635 1.50031C11.0628 0.579 12.3663 0.578997 12.6656 1.50031L14.7455 7.90153C14.8794 8.31355 15.2633 8.59251 15.6966 8.59251L22.4272 8.59251C23.3959 8.59251 23.7987 9.83213 23.015 10.4015L17.5698 14.3577C17.2193 14.6123 17.0726 15.0637 17.2065 15.4757L19.2864 21.877C19.5857 22.7983 18.5313 23.5644 17.7475 22.995L12.3023 19.0388C11.9519 18.7842 11.4773 18.7842 11.1268 19.0388L5.68156 22.995C4.89785 23.5644 3.84337 22.7983 4.14272 21.877L6.22261 15.4757C6.35648 15.0637 6.20982 14.6123 5.85934 14.3577L0.414131 10.4015C-0.369583 9.83212 0.0331953 8.59251 1.00192 8.59251L7.73256 8.59251C8.16579 8.59251 8.54974 8.31355 8.68362 7.90153L10.7635 1.50031Z" fill="#FFD789"/>
</svg>
