<svg width="136" height="96" viewBox="0 0 136 96" fill="none" xmlns="http://www.w3.org/2000/svg">
<rect width="16" height="16" rx="4" fill="#54A6FB"/>
<rect y="20" width="16" height="16" rx="4" fill="black" fill-opacity="0.1"/>
<rect y="40" width="16" height="16" rx="4" fill="black" fill-opacity="0.1"/>
<rect y="60" width="16" height="16" rx="4" fill="black" fill-opacity="0.1"/>
<rect y="80" width="16" height="16" rx="4" fill="black" fill-opacity="0.1"/>
<rect x="20" width="16" height="16" rx="4" fill="#54A6FB"/>
<rect x="20" y="20" width="16" height="16" rx="4" fill="black" fill-opacity="0.1"/>
<rect x="20" y="40" width="16" height="16" rx="4" fill="black" fill-opacity="0.1"/>
<rect x="20" y="60" width="16" height="16" rx="4" fill="black" fill-opacity="0.1"/>
<rect x="20" y="80" width="16" height="16" rx="4" fill="black" fill-opacity="0.1"/>
<rect x="40" width="16" height="16" rx="4" fill="#54A6FB"/>
<rect x="40" y="20" width="16" height="16" rx="4" fill="black" fill-opacity="0.1"/>
<rect x="40" y="40" width="16" height="16" rx="4" fill="black" fill-opacity="0.1"/>
<rect x="40" y="60" width="16" height="16" rx="4" fill="black" fill-opacity="0.1"/>
<rect x="40" y="80" width="16" height="16" rx="4" fill="black" fill-opacity="0.1"/>
<rect x="60" width="16" height="16" rx="4" fill="#54A6FB"/>
<rect x="60" y="20" width="16" height="16" rx="4" fill="black" fill-opacity="0.1"/>
<rect x="60" y="40" width="16" height="16" rx="4" fill="black" fill-opacity="0.1"/>
<rect x="60" y="60" width="16" height="16" rx="4" fill="black" fill-opacity="0.1"/>
<rect x="60" y="80" width="16" height="16" rx="4" fill="black" fill-opacity="0.1"/>
<rect x="80" width="16" height="16" rx="4" fill="#54A6FB"/>
<rect x="80" y="20" width="16" height="16" rx="4" fill="black" fill-opacity="0.1"/>
<rect x="80" y="40" width="16" height="16" rx="4" fill="black" fill-opacity="0.1"/>
<rect x="80" y="60" width="16" height="16" rx="4" fill="black" fill-opacity="0.1"/>
<rect x="80" y="80" width="16" height="16" rx="4" fill="black" fill-opacity="0.1"/>
<rect x="100" width="16" height="16" rx="4" fill="#54A6FB"/>
<rect x="100" y="20" width="16" height="16" rx="4" fill="black" fill-opacity="0.1"/>
<rect x="100" y="40" width="16" height="16" rx="4" fill="black" fill-opacity="0.1"/>
<rect x="100" y="60" width="16" height="16" rx="4" fill="black" fill-opacity="0.1"/>
<rect x="100" y="80" width="16" height="16" rx="4" fill="black" fill-opacity="0.1"/>
<rect x="120" width="16" height="16" rx="4" fill="#54A6FB"/>
<rect x="120" y="20" width="16" height="16" rx="4" fill="black" fill-opacity="0.1"/>
<rect x="120" y="40" width="16" height="16" rx="4" fill="black" fill-opacity="0.1"/>
<rect x="120" y="60" width="16" height="16" rx="4" fill="black" fill-opacity="0.1"/>
<rect x="120" y="80" width="16" height="16" rx="4" fill="black" fill-opacity="0.1"/>
</svg>
