<svg width="12" height="13" viewBox="0 0 12 13" fill="none" xmlns="http://www.w3.org/2000/svg">
<path d="M1 10.25C1 10.9375 1.44875 11.5 2 11.5C2.12065 11.4973 2.2395 11.4701 2.3493 11.42C2.45911 11.3699 2.55759 11.2981 2.63875 11.2087C2.73087 11.1149 2.85624 11.0612 2.98771 11.0591C3.11919 11.0571 3.24618 11.1069 3.34118 11.1978C3.43619 11.2887 3.49157 11.4133 3.49533 11.5448C3.49908 11.6762 3.45091 11.8038 3.36125 11.9C3.18715 12.0874 2.97661 12.2373 2.74254 12.3405C2.50847 12.4436 2.25579 12.4979 2 12.5C0.896875 12.5 0 11.4906 0 10.25C0 9.00937 0.896875 8 2 8C2.25579 8.00207 2.50847 8.05636 2.74254 8.15953C2.97661 8.2627 3.18715 8.41259 3.36125 8.6C3.45091 8.69618 3.49908 8.8238 3.49533 8.95523C3.49157 9.08667 3.43619 9.21134 3.34118 9.30223C3.24618 9.39313 3.11919 9.44295 2.98771 9.44089C2.85624 9.43884 2.73087 9.38508 2.63875 9.29125C2.55759 9.20193 2.45911 9.13005 2.3493 9.07999C2.2395 9.02992 2.12065 9.0027 2 9C1.44875 9 1 9.5625 1 10.25ZM5.975 9.70687C5.725 9.63437 5.46625 9.56 5.32188 9.46688C5.24375 9.41625 5.245 9.40438 5.25187 9.34813C5.25297 9.30271 5.26488 9.2582 5.28662 9.21831C5.30836 9.17842 5.3393 9.14429 5.37687 9.11875C5.66437 8.92375 6.33563 9.01062 6.61563 9.08375C6.74392 9.11814 6.88063 9.10017 6.99567 9.03377C7.11071 8.96737 7.19467 8.85799 7.22906 8.72969C7.26346 8.60139 7.24548 8.46468 7.17908 8.34964C7.11268 8.2346 7.0033 8.15065 6.875 8.11625C6.7425 8.08187 5.5625 7.79 4.8225 8.28875C4.66601 8.39377 4.53452 8.53191 4.43732 8.69337C4.34011 8.85483 4.27958 9.03568 4.26 9.22313C4.135 10.2156 5.11313 10.4987 5.6975 10.6675C6.45125 10.8856 6.5175 10.975 6.49625 11.1419C6.47688 11.2925 6.4175 11.3506 6.3625 11.3875C6.075 11.5787 5.41437 11.485 5.14062 11.41C5.01266 11.3743 4.87574 11.3909 4.76 11.4561C4.64425 11.5213 4.55916 11.6298 4.52344 11.7578C4.48772 11.8858 4.50429 12.0227 4.56952 12.1384C4.63475 12.2542 4.74328 12.3393 4.87125 12.375C5.18124 12.4562 5.50019 12.4982 5.82062 12.5C6.18437 12.5 6.58937 12.4375 6.91375 12.2212C7.07385 12.1149 7.2084 11.9743 7.30771 11.8097C7.40702 11.6452 7.46864 11.4606 7.48812 11.2694C7.625 10.1875 6.59312 9.88562 5.975 9.70687ZM11.1681 8.02938C11.1063 8.00723 11.0407 7.9975 10.9751 8.00072C10.9095 8.00394 10.8451 8.02006 10.7858 8.04815C10.7264 8.07624 10.6731 8.11576 10.629 8.16444C10.5849 8.21312 10.5509 8.27002 10.5288 8.33187L9.75 10.5131L8.97062 8.33187C8.92603 8.20697 8.83366 8.1049 8.71381 8.04811C8.59396 7.99133 8.45646 7.98447 8.33156 8.02906C8.20666 8.07365 8.10459 8.16603 8.0478 8.28588C7.99101 8.40573 7.98416 8.54322 8.02875 8.66813L9.27875 12.1681C9.31341 12.2653 9.37727 12.3494 9.46158 12.4088C9.54589 12.4682 9.64653 12.5001 9.74969 12.5001C9.85285 12.5001 9.95348 12.4682 10.0378 12.4088C10.1221 12.3494 10.186 12.2653 10.2206 12.1681L11.4706 8.66813C11.5151 8.5433 11.5083 8.40592 11.4516 8.28614C11.3949 8.16637 11.2929 8.07402 11.1681 8.02938ZM11.5 4.5V6C11.5 6.13261 11.4473 6.25979 11.3536 6.35355C11.2598 6.44732 11.1326 6.5 11 6.5C10.8674 6.5 10.7402 6.44732 10.6464 6.35355C10.5527 6.25979 10.5 6.13261 10.5 6V5H7.5C7.36739 5 7.24021 4.94732 7.14645 4.85355C7.05268 4.75979 7 4.63261 7 4.5V1.5H1.5V6C1.5 6.13261 1.44732 6.25979 1.35355 6.35355C1.25979 6.44732 1.13261 6.5 1 6.5C0.867392 6.5 0.740215 6.44732 0.646447 6.35355C0.552679 6.25979 0.5 6.13261 0.5 6V1.5C0.5 1.23478 0.605357 0.98043 0.792893 0.792893C0.98043 0.605357 1.23478 0.5 1.5 0.5H7.5C7.56568 0.499949 7.63073 0.512838 7.69143 0.537932C7.75212 0.563026 7.80728 0.599833 7.85375 0.64625L11.3538 4.14625C11.4002 4.19272 11.437 4.24788 11.4621 4.30858C11.4872 4.36927 11.5001 4.43432 11.5 4.5ZM9.79313 4L8 2.20688V4H9.79313Z" fill="#666666"/>
</svg>
