<svg width="18" height="20" viewBox="0 0 18 20" fill="none" xmlns="http://www.w3.org/2000/svg">
<path fill-rule="evenodd" clip-rule="evenodd" d="M9.586 0C10.0556 0.000114731 10.5101 0.165434 10.87 0.467L11 0.586L15.414 5C15.746 5.33202 15.9506 5.77028 15.992 6.238L16 6.414V10H14V8H9.5C9.12712 7.99998 8.76761 7.86108 8.49158 7.61038C8.21555 7.35968 8.0428 7.01516 8.007 6.644L8 6.5V2H2V18H8V20H2C1.49542 20.0002 1.00943 19.8096 0.639452 19.4665C0.269471 19.1234 0.0428434 18.6532 0.00500021 18.15L1.00268e-07 18V2C-0.000159579 1.49542 0.190406 1.00943 0.533497 0.639452C0.876588 0.269471 1.34684 0.0428433 1.85 0.00500011L2 0H9.586ZM14.707 12.464L17.535 15.293C17.7225 15.4805 17.8278 15.7348 17.8278 16C17.8278 16.2652 17.7225 16.5195 17.535 16.707L14.707 19.535C14.6148 19.6305 14.5044 19.7067 14.3824 19.7591C14.2604 19.8115 14.1292 19.8391 13.9964 19.8403C13.8636 19.8414 13.7319 19.8161 13.609 19.7658C13.4862 19.7155 13.3745 19.6413 13.2806 19.5474C13.1867 19.4535 13.1125 19.3419 13.0622 19.219C13.0119 19.0961 12.9866 18.9644 12.9877 18.8316C12.9889 18.6988 13.0165 18.5676 13.0689 18.4456C13.1213 18.3236 13.1975 18.2132 13.293 18.121L14.414 17H10C9.73478 17 9.48043 16.8946 9.29289 16.7071C9.10536 16.5196 9 16.2652 9 16C9 15.7348 9.10536 15.4804 9.29289 15.2929C9.48043 15.1054 9.73478 15 10 15H14.414L13.293 13.879C13.1054 13.6915 12.9999 13.4371 12.9998 13.1719C12.9997 12.9066 13.105 12.6521 13.2925 12.4645C13.48 12.2769 13.7344 12.1714 13.9996 12.1713C14.2649 12.1712 14.5194 12.2765 14.707 12.464ZM10 2.414V6H13.586L10 2.414Z" fill="#666666"/>
</svg>
