<svg width="19" height="18" viewBox="0 0 19 18" fill="none" xmlns="http://www.w3.org/2000/svg">
<path d="M12.9528 18C12.4028 18 11.9319 17.8042 11.5403 17.4125C11.1486 17.0208 10.9528 16.55 10.9528 16V2C10.9528 1.45 11.1486 0.979167 11.5403 0.5875C11.9319 0.195833 12.4028 0 12.9528 0H16.9528C17.5028 0 17.9736 0.195833 18.3653 0.5875C18.7569 0.979167 18.9528 1.45 18.9528 2V16C18.9528 16.55 18.7569 17.0208 18.3653 17.4125C17.9736 17.8042 17.5028 18 16.9528 18H12.9528ZM12.9528 2V16H16.9528V2H12.9528ZM2.95276 18C2.40276 18 1.93193 17.8042 1.54026 17.4125C1.14859 17.0208 0.952759 16.55 0.952759 16V2C0.952759 1.45 1.14859 0.979167 1.54026 0.5875C1.93193 0.195833 2.40276 0 2.95276 0H6.95276C7.50276 0 7.97359 0.195833 8.36526 0.5875C8.75693 0.979167 8.95276 1.45 8.95276 2V16C8.95276 16.55 8.75693 17.0208 8.36526 17.4125C7.97359 17.8042 7.50276 18 6.95276 18H2.95276ZM2.95276 2V16H6.95276V2H2.95276Z" fill="#666666"/>
</svg>
