<svg width="18" height="20" viewBox="0 0 18 20" fill="none" xmlns="http://www.w3.org/2000/svg">
<path fill-rule="evenodd" clip-rule="evenodd" d="M11.586 0C12.0556 0.000114731 12.5101 0.165434 12.87 0.467L13 0.586L17.414 5C17.746 5.33202 17.9506 5.77028 17.992 6.238L18 6.414V18C18.0002 18.5046 17.8096 18.9906 17.4665 19.3605C17.1234 19.7305 16.6532 19.9572 16.15 19.995L16 20H10V18H16V8H11.5C11.1271 7.99998 10.7676 7.86108 10.4916 7.61038C10.2156 7.35968 10.0428 7.01516 10.007 6.644L10 6.5V2H4V10H2V2C1.99984 1.49542 2.19041 1.00943 2.5335 0.639452C2.87659 0.269471 3.34684 0.0428433 3.85 0.00500011L4 0H11.586ZM5.707 12.464L8.536 15.293C8.72347 15.4805 8.82879 15.7348 8.82879 16C8.82879 16.2652 8.72347 16.5195 8.536 16.707L5.707 19.535C5.61475 19.6305 5.50441 19.7067 5.3824 19.7591C5.2604 19.8115 5.12918 19.8391 4.9964 19.8403C4.86362 19.8414 4.73194 19.8161 4.60905 19.7658C4.48615 19.7155 4.3745 19.6413 4.2806 19.5474C4.18671 19.4535 4.11246 19.3419 4.06218 19.219C4.0119 19.0961 3.9866 18.9644 3.98775 18.8316C3.9889 18.6988 4.01649 18.5676 4.0689 18.4456C4.12131 18.3236 4.19749 18.2132 4.293 18.121L5.414 17H1C0.734784 17 0.48043 16.8946 0.292893 16.7071C0.105357 16.5196 0 16.2652 0 16C0 15.7348 0.105357 15.4804 0.292893 15.2929C0.48043 15.1054 0.734784 15 1 15H5.414L4.293 13.879C4.20009 13.7862 4.12638 13.6759 4.07607 13.5546C4.02576 13.4333 3.99984 13.3032 3.9998 13.1719C3.9997 12.9066 4.10499 12.6521 4.2925 12.4645C4.48001 12.2769 4.73438 12.1714 4.99965 12.1713C5.131 12.1713 5.26107 12.1971 5.38243 12.2473C5.5038 12.2975 5.61409 12.3712 5.707 12.464ZM12 2.414V6H15.586L12 2.414Z" fill="#666666"/>
</svg>
