<svg width="16" height="16" viewBox="0 0 16 16" fill="none" xmlns="http://www.w3.org/2000/svg">
<path fill-rule="evenodd" clip-rule="evenodd" d="M14.3905 2.20253H9.3255V1.00903L1 2.29403V13.5575L9.3255 14.9915V13.2225H14.3905C14.5439 13.2303 14.6941 13.177 14.8083 13.0743C14.9226 12.9716 14.9915 12.8279 15 12.6745V2.75003C14.9913 2.59676 14.9224 2.45315 14.8082 2.35056C14.694 2.24798 14.5438 2.19476 14.3905 2.20253ZM14.4705 12.7655H9.3085L9.3 11.821H10.5435V10.721H9.2905L9.2845 10.071H10.5435V8.97103H9.275L9.269 8.32103H10.5435V7.22103H9.265V6.57103H10.5435V5.47103H9.265V4.82103H10.5435V3.72103H9.265V2.72103H14.4705V12.7655Z" fill="#20744A"/>
<path d="M11.2435 3.71948H13.405V4.81948H11.2435V3.71948ZM11.2435 5.46998H13.405V6.56998H11.2435V5.46998ZM11.2435 7.22048H13.405V8.32048H11.2435V7.22048ZM11.2435 8.97098H13.405V10.071H11.2435V8.97098ZM11.2435 10.7215H13.405V11.8215H11.2435V10.7215Z" fill="#20744A"/>
<path fill-rule="evenodd" clip-rule="evenodd" d="M3.17354 5.33646L4.24654 5.27496L4.92104 7.12946L5.71804 5.19846L6.79104 5.13696L5.48804 7.76996L6.79104 10.4095L5.65654 10.333L4.89054 8.32096L4.12404 10.2565L3.08154 10.1645L4.29254 7.83296L3.17354 5.33646Z" fill="white"/>
</svg>
