<svg width="18" height="16" viewBox="0 0 18 16" fill="none" xmlns="http://www.w3.org/2000/svg">
<path d="M6 3.875H15.1388L12.4485 1.1855L13.5 0.125L18 4.625L13.5 9.125L12.4485 8.06375L15.1365 5.375H6C4.80653 5.375 3.66193 5.84911 2.81802 6.69302C1.97411 7.53693 1.5 8.68153 1.5 9.875C1.5 11.0685 1.97411 12.2131 2.81802 13.057C3.66193 13.9009 4.80653 14.375 6 14.375H12V15.875H6C4.4087 15.875 2.88258 15.2429 1.75736 14.1176C0.632141 12.9924 0 11.4663 0 9.875C0 8.2837 0.632141 6.75758 1.75736 5.63236C2.88258 4.50714 4.4087 3.875 6 3.875Z" fill="#666666"/>
</svg>
