<svg width="18" height="16" viewBox="0 0 18 16" fill="none" xmlns="http://www.w3.org/2000/svg">
<path d="M12 3.875H2.86125L5.5515 1.1855L4.5 0.125L0 4.625L4.5 9.125L5.5515 8.06375L2.8635 5.375H12C13.1935 5.375 14.3381 5.84911 15.182 6.69302C16.0259 7.53693 16.5 8.68153 16.5 9.875C16.5 11.0685 16.0259 12.2131 15.182 13.057C14.3381 13.9009 13.1935 14.375 12 14.375H6V15.875H12C13.5913 15.875 15.1174 15.2429 16.2426 14.1176C17.3679 12.9924 18 11.4663 18 9.875C18 8.2837 17.3679 6.75758 16.2426 5.63236C15.1174 4.50714 13.5913 3.875 12 3.875Z" fill="#666666"/>
</svg>
