<svg width="24" height="24" viewBox="0 0 24 24" fill="none" xmlns="http://www.w3.org/2000/svg">
<path fill-rule="evenodd" clip-rule="evenodd" d="M5.5 0C2.46243 0 0 2.46243 0 5.5C0 8.53757 2.46243 11 5.5 11H18.5C21.5376 11 24 8.53757 24 5.5C24 2.46243 21.5376 0 18.5 0H5.5ZM5.5 10C7.98528 10 10 7.98528 10 5.5C10 3.01472 7.98528 1 5.5 1C3.01472 1 1 3.01472 1 5.5C1 7.98528 3.01472 10 5.5 10Z" fill="#666666"/>
<path fill-rule="evenodd" clip-rule="evenodd" d="M5.5 13C2.46243 13 0 15.4624 0 18.5C0 21.5376 2.46243 24 5.5 24H18.5C21.5376 24 24 21.5376 24 18.5C24 15.4624 21.5376 13 18.5 13H5.5ZM18.5 23C20.9853 23 23 20.9853 23 18.5C23 16.0147 20.9853 14 18.5 14C16.0147 14 14 16.0147 14 18.5C14 20.9853 16.0147 23 18.5 23Z" fill="#666666"/>
</svg>
