<svg width="24" height="21" viewBox="0 0 24 21" fill="none" xmlns="http://www.w3.org/2000/svg">
<path fill-rule="evenodd" clip-rule="evenodd" d="M1.94595 7.13513C1.94595 6.7769 2.23636 6.48649 2.59459 6.48649H3.89189C4.25013 6.48649 4.54054 6.7769 4.54054 7.13513V8.43243C4.54054 8.79067 4.25013 9.08108 3.89189 9.08108H2.59459C2.23636 9.08108 1.94595 8.79067 1.94595 8.43243V7.13513ZM1.94595 11.027C1.94595 10.6688 2.23636 10.3784 2.59459 10.3784H3.89189C4.25013 10.3784 4.54054 10.6688 4.54054 11.027V12.3243C4.54054 12.6826 4.25013 12.973 3.89189 12.973H2.59459C2.23636 12.973 1.94595 12.6826 1.94595 12.3243V11.027ZM7.13513 6.48649C6.7769 6.48649 6.48649 6.7769 6.48649 7.13513V8.43243C6.48649 8.79067 6.7769 9.08108 7.13513 9.08108H8.43243C8.79067 9.08108 9.08108 8.79067 9.08108 8.43243V7.13513C9.08108 6.7769 8.79067 6.48649 8.43243 6.48649H7.13513ZM6.48649 11.027C6.48649 10.6688 6.7769 10.3784 7.13513 10.3784H8.43243C8.79067 10.3784 9.08108 10.6688 9.08108 11.027V12.3243C9.08108 12.6826 8.79067 12.973 8.43243 12.973H7.13513C6.7769 12.973 6.48649 12.6826 6.48649 12.3243V11.027ZM11.6757 6.48649C11.3174 6.48649 11.027 6.7769 11.027 7.13513C11.027 7.49337 11.3174 7.78378 11.6757 7.78378C12.0339 7.78378 12.3243 7.49337 12.3243 7.13513C12.3243 6.7769 12.0339 6.48649 11.6757 6.48649Z" fill="#666666" fill-opacity="0.5"/>
<path fill-rule="evenodd" clip-rule="evenodd" d="M16.2162 19.4595C19.7986 19.4595 22.7027 16.5554 22.7027 12.973C22.7027 9.39058 19.7986 6.48649 16.2162 6.48649C12.6338 6.48649 9.72973 9.39058 9.72973 12.973C9.72973 16.5554 12.6338 19.4595 16.2162 19.4595ZM16.2162 20.7568C20.5151 20.7568 24 17.2718 24 12.973C24 8.67411 20.5151 5.18919 16.2162 5.18919C11.9174 5.18919 8.43243 8.67411 8.43243 12.973C8.43243 17.2718 11.9174 20.7568 16.2162 20.7568Z" fill="#666666"/>
<path d="M16.8649 12.973C16.8649 13.3312 16.5745 13.6216 16.2162 13.6216C15.858 13.6216 15.5676 13.3312 15.5676 12.973C15.5676 12.6147 15.858 12.3243 16.2162 12.3243C16.5745 12.3243 16.8649 12.6147 16.8649 12.973Z" fill="#666666"/>
<path fill-rule="evenodd" clip-rule="evenodd" d="M12.0752 9.5221C12.1898 9.3845 12.3943 9.36591 12.532 9.48058L16.1963 12.5342L18.5815 10.149C18.7081 10.0224 18.9135 10.0224 19.0401 10.149C19.1668 10.2757 19.1668 10.4811 19.0401 10.6077L16.2361 13.4117L12.1167 9.97888C11.9791 9.86421 11.9605 9.65971 12.0752 9.5221Z" fill="#666666"/>
<path fill-rule="evenodd" clip-rule="evenodd" d="M16.2162 8.43243C16.0371 8.43243 15.8919 8.28723 15.8919 8.10811V7.45946C15.8919 7.28034 16.0371 7.13513 16.2162 7.13513C16.3953 7.13513 16.5405 7.28034 16.5405 7.45946V8.10811C16.5405 8.28723 16.3953 8.43243 16.2162 8.43243Z" fill="#666666" fill-opacity="0.5"/>
<path fill-rule="evenodd" clip-rule="evenodd" d="M16.2162 18.8108C16.0371 18.8108 15.8919 18.6656 15.8919 18.4865V17.8378C15.8919 17.6587 16.0371 17.5135 16.2162 17.5135C16.3953 17.5135 16.5405 17.6587 16.5405 17.8378V18.4865C16.5405 18.6656 16.3953 18.8108 16.2162 18.8108Z" fill="#666666" fill-opacity="0.5"/>
<path fill-rule="evenodd" clip-rule="evenodd" d="M20.7568 12.973C20.7568 12.7939 20.902 12.6486 21.0811 12.6486H21.7297C21.9088 12.6486 22.0541 12.7939 22.0541 12.973C22.0541 13.1521 21.9088 13.2973 21.7297 13.2973H21.0811C20.902 13.2973 20.7568 13.1521 20.7568 12.973Z" fill="#666666" fill-opacity="0.5"/>
<path fill-rule="evenodd" clip-rule="evenodd" d="M10.3784 12.973C10.3784 12.7939 10.5236 12.6486 10.7027 12.6486H11.3514C11.5305 12.6486 11.6757 12.7939 11.6757 12.973C11.6757 13.1521 11.5305 13.2973 11.3514 13.2973H10.7027C10.5236 13.2973 10.3784 13.1521 10.3784 12.973Z" fill="#666666" fill-opacity="0.5"/>
<path fill-rule="evenodd" clip-rule="evenodd" d="M2.59459 0.648649C2.59459 0.29041 2.885 0 3.24324 0C3.60148 0 3.89189 0.29041 3.89189 0.648649V1.2973H11.6757V0.648649C11.6757 0.29041 11.9661 0 12.3243 0C12.6826 0 12.973 0.29041 12.973 0.648649V1.2973H14.9189C15.2772 1.2973 15.5676 1.58771 15.5676 1.94595V5.21583C15.1235 5.25246 14.69 5.32637 14.2703 5.43441V5.18919H1.2973V14.2703H8.54005C8.61496 14.7167 8.72787 15.1503 8.87534 15.5676H0.648649C0.29041 15.5676 0 15.2772 0 14.9189V1.94595C0 1.58771 0.29041 1.2973 0.648649 1.2973H2.59459V0.648649ZM1.2973 2.59459V3.89189H14.2703V2.59459H1.2973Z" fill="#666666"/>
</svg>
