<svg width="24" height="24" viewBox="0 0 24 24" fill="none" xmlns="http://www.w3.org/2000/svg">
<path fill-rule="evenodd" clip-rule="evenodd" d="M4 1C4 0.447715 4.44772 0 5 0C5.55228 0 6 0.447715 6 1V2H18V1C18 0.447715 18.4477 0 19 0C19.5523 0 20 0.447715 20 1V2H23C23.5523 2 24 2.44772 24 3V7V23C24 23.5523 23.5523 24 23 24H1C0.447716 24 0 23.5523 0 23V7V3C0 2.44772 0.447715 2 1 2H4V1ZM19 4H5H2V6H22V4H19ZM22 8H2V22H22V8Z" fill="#666666"/>
<path fill-rule="evenodd" clip-rule="evenodd" d="M4 10C3.44772 10 3 10.4477 3 11V13C3 13.5523 3.44772 14 4 14H6C6.55228 14 7 13.5523 7 13V11C7 10.4477 6.55228 10 6 10H4ZM4 16C3.44772 16 3 16.4477 3 17V19C3 19.5523 3.44772 20 4 20H6C6.55228 20 7 19.5523 7 19V17C7 16.4477 6.55228 16 6 16H4ZM10 11C10 10.4477 10.4477 10 11 10H13C13.5523 10 14 10.4477 14 11V13C14 13.5523 13.5523 14 13 14H11C10.4477 14 10 13.5523 10 13V11ZM11 16C10.4477 16 10 16.4477 10 17V19C10 19.5523 10.4477 20 11 20H13C13.5523 20 14 19.5523 14 19V17C14 16.4477 13.5523 16 13 16H11ZM17 11C17 10.4477 17.4477 10 18 10H20C20.5523 10 21 10.4477 21 11V13C21 13.5523 20.5523 14 20 14H18C17.4477 14 17 13.5523 17 13V11ZM18 16C17.4477 16 17 16.4477 17 17V19C17 19.5523 17.4477 20 18 20H20C20.5523 20 21 19.5523 21 19V17C21 16.4477 20.5523 16 20 16H18Z" fill="#666666" fill-opacity="0.5"/>
</svg>
