<svg width="24" height="12" viewBox="0 0 24 12" fill="none" xmlns="http://www.w3.org/2000/svg">
<path d="M1.27107 11.9035C0.920587 11.9035 0.620173 11.7825 0.369828 11.5404C0.119483 11.2983 -0.00376389 11.0033 8.75313e-05 10.6553C-0.00376389 10.3149 0.119483 10.0236 0.369828 9.78156C0.620173 9.53948 0.920587 9.41844 1.27107 9.41844C1.61 9.41844 1.90464 9.53948 2.15498 9.78156C2.40918 10.0236 2.5382 10.3149 2.54205 10.6553C2.5382 10.8861 2.47658 11.096 2.35718 11.2851C2.24164 11.4742 2.08758 11.6255 1.89501 11.739C1.70629 11.8487 1.49831 11.9035 1.27107 11.9035Z" fill="#666666"/>
<path d="M8.59078 12C7.63946 12 6.82295 11.7636 6.14125 11.2908C5.46339 10.8142 4.94151 10.1277 4.57563 9.23121C4.21359 8.33097 4.03257 7.24728 4.03257 5.98014C4.03642 4.713 4.21937 3.63499 4.5814 2.7461C4.94729 1.85343 5.46917 1.17258 6.14702 0.703547C6.82873 0.234516 7.64332 0 8.59078 0C9.53824 0 10.3528 0.234516 11.0345 0.703547C11.7162 1.17258 12.2381 1.85343 12.6001 2.7461C12.966 3.63877 13.149 4.71679 13.149 5.98014C13.149 7.25106 12.966 8.33664 12.6001 9.23688C12.2381 10.1333 11.7162 10.818 11.0345 11.2908C10.3567 11.7636 9.54209 12 8.59078 12ZM8.59078 10.2241C9.33026 10.2241 9.91375 9.86667 10.3413 9.15177C10.7726 8.4331 10.9883 7.37589 10.9883 5.98014C10.9883 5.05721 10.8901 4.2818 10.6937 3.6539C10.4973 3.026 10.2199 2.55319 9.86176 2.23546C9.50357 1.91395 9.07991 1.75319 8.59078 1.75319C7.85515 1.75319 7.27358 2.11253 6.84606 2.83121C6.41855 3.5461 6.20287 4.59575 6.19902 5.98014C6.19517 6.90686 6.28953 7.68605 6.4821 8.31773C6.67853 8.94941 6.95583 9.42601 7.31402 9.74752C7.6722 10.0652 8.09779 10.2241 8.59078 10.2241Z" fill="#666666"/>
<path d="M19.4418 12C18.4905 12 17.674 11.7636 16.9923 11.2908C16.3144 10.8142 15.7925 10.1277 15.4266 9.23121C15.0646 8.33097 14.8836 7.24728 14.8836 5.98014C14.8874 4.713 15.0704 3.63499 15.4324 2.7461C15.7983 1.85343 16.3202 1.17258 16.998 0.703547C17.6797 0.234516 18.4943 0 19.4418 0C20.3893 0 21.2038 0.234516 21.8855 0.703547C22.5673 1.17258 23.0891 1.85343 23.4512 2.7461C23.8171 3.63877 24 4.71679 24 5.98014C24 7.25106 23.8171 8.33664 23.4512 9.23688C23.0891 10.1333 22.5673 10.818 21.8855 11.2908C21.2077 11.7636 20.3931 12 19.4418 12ZM19.4418 10.2241C20.1813 10.2241 20.7648 9.86667 21.1923 9.15177C21.6236 8.4331 21.8393 7.37589 21.8393 5.98014C21.8393 5.05721 21.7411 4.2818 21.5447 3.6539C21.3483 3.026 21.071 2.55319 20.7128 2.23546C20.3546 1.91395 19.9309 1.75319 19.4418 1.75319C18.7062 1.75319 18.1246 2.11253 17.6971 2.83121C17.2696 3.5461 17.0539 4.59575 17.05 5.98014C17.0462 6.90686 17.1405 7.68605 17.3331 8.31773C17.5295 8.94941 17.8068 9.42601 18.165 9.74752C18.5232 10.0652 18.9488 10.2241 19.4418 10.2241Z" fill="#666666"/>
</svg>
