<svg width="20" height="24" viewBox="0 0 20 24" fill="none" xmlns="http://www.w3.org/2000/svg">
<path fill-rule="evenodd" clip-rule="evenodd" d="M16 12.5C16 12.7761 15.7761 13 15.5 13H4.5C4.22386 13 4 12.7761 4 12.5V12.5C4 12.2239 4.22386 12 4.5 12H15.5C15.7761 12 16 12.2239 16 12.5V12.5Z" fill="#666666" fill-opacity="0.5"/>
<path fill-rule="evenodd" clip-rule="evenodd" d="M16 15.5C16 15.7761 15.7761 16 15.5 16H4.5C4.22386 16 4 15.7761 4 15.5V15.5C4 15.2239 4.22386 15 4.5 15H15.5C15.7761 15 16 15.2239 16 15.5V15.5Z" fill="#666666" fill-opacity="0.5"/>
<path fill-rule="evenodd" clip-rule="evenodd" d="M16 18.5C16 18.7761 15.7761 19 15.5 19H4.5C4.22386 19 4 18.7761 4 18.5V18.5C4 18.2239 4.22386 18 4.5 18H15.5C15.7761 18 16 18.2239 16 18.5V18.5Z" fill="#666666" fill-opacity="0.5"/>
<path fill-rule="evenodd" clip-rule="evenodd" d="M2 2V22H18V6.84516L14.2028 2H2ZM0 1.5C0 0.671575 0.67157 0 1.5 0H14.4463C14.9072 0 15.3426 0.211933 15.6269 0.57474L19.6806 5.74732C19.8876 6.01135 20 6.33713 20 6.67258V22.5C20 23.3284 19.3284 24 18.5 24H1.5C0.671574 24 0 23.3284 0 22.5V1.5Z" fill="#666666"/>
<path fill-rule="evenodd" clip-rule="evenodd" d="M15 6L18 6L18 8L14.5 8C13.6716 8 13 7.32843 13 6.5L13 2L15 2L15 6Z" fill="#666666"/>
</svg>
