<svg width="24" height="10" viewBox="0 0 24 10" fill="none" xmlns="http://www.w3.org/2000/svg">
<path d="M3.88433 0.126173V9.35485H2.21254V1.75291H2.15846L0 3.1318V1.5997L2.29365 0.126173H3.88433Z" fill="#666666"/>
<path d="M6.74238 9.45398C6.46901 9.45398 6.23469 9.35785 6.03942 9.16559C5.84415 8.97332 5.74802 8.739 5.75102 8.46262C5.74802 8.19225 5.84415 7.96093 6.03942 7.76867C6.23469 7.57641 6.46901 7.48027 6.74238 7.48027C7.00675 7.48027 7.23656 7.57641 7.43183 7.76867C7.6301 7.96093 7.73074 8.19225 7.73375 8.46262C7.73074 8.64587 7.68268 8.8126 7.58955 8.96281C7.49942 9.11302 7.37926 9.23318 7.22905 9.32331C7.08185 9.41043 6.91963 9.45398 6.74238 9.45398Z" fill="#666666"/>
<path d="M9.39991 9.35485V8.14719L12.6038 5.00638C12.9102 4.69695 13.1656 4.42207 13.3699 4.18174C13.5741 3.94141 13.7274 3.70859 13.8295 3.48328C13.9316 3.25797 13.9827 3.01764 13.9827 2.76229C13.9827 2.47089 13.9166 2.22155 13.7844 2.01427C13.6522 1.80398 13.4705 1.64176 13.2392 1.5276C13.0079 1.41344 12.745 1.35636 12.4506 1.35636C12.1472 1.35636 11.8813 1.41945 11.653 1.54562C11.4247 1.66879 11.2474 1.84453 11.1213 2.07285C10.9981 2.30116 10.9365 2.57303 10.9365 2.88847H9.34583C9.34583 2.30266 9.47952 1.79346 9.74689 1.36087C10.0143 0.928275 10.3823 0.593315 10.8509 0.355989C11.3225 0.118663 11.8633 0 12.4731 0C13.092 0 13.6357 0.115659 14.1044 0.346977C14.573 0.578294 14.9365 0.89523 15.1949 1.29778C15.4562 1.70034 15.5869 2.15997 15.5869 2.67668C15.5869 3.02215 15.5208 3.36162 15.3886 3.69507C15.2565 4.02853 15.0236 4.39804 14.6902 4.8036C14.3597 5.20915 13.8956 5.70033 13.2978 6.27712L11.7071 7.89484V7.95793H15.7266V9.35485H9.39991Z" fill="#666666"/>
<path d="M20.5933 9.48102C19.9444 9.48102 19.3676 9.36987 18.8629 9.14756C18.3612 8.92526 17.9647 8.61583 17.6733 8.21929C17.3819 7.82274 17.2272 7.36461 17.2091 6.8449H18.9035C18.9185 7.09424 19.0011 7.31204 19.1513 7.4983C19.3015 7.68155 19.5013 7.82425 19.7506 7.92639C20 8.02853 20.2794 8.0796 20.5888 8.0796C20.9192 8.0796 21.2121 8.02252 21.4675 7.90836C21.7228 7.7912 21.9226 7.62898 22.0668 7.42169C22.211 7.21441 22.2816 6.97558 22.2786 6.70521C22.2816 6.42583 22.2095 6.17949 22.0623 5.96619C21.9151 5.7529 21.7018 5.58617 21.4224 5.46601C21.146 5.34584 20.8126 5.28576 20.422 5.28576H19.6064V3.99699H20.422C20.7435 3.99699 21.0244 3.94141 21.2647 3.83026C21.508 3.71911 21.6988 3.56289 21.837 3.36162C21.9752 3.15734 22.0428 2.92151 22.0398 2.65415C22.0428 2.39279 21.9842 2.16598 21.864 1.97371C21.7469 1.77844 21.5801 1.62673 21.3638 1.51859C21.1505 1.41044 20.8997 1.35636 20.6113 1.35636C20.3289 1.35636 20.0676 1.40743 19.8272 1.50957C19.5869 1.61171 19.3931 1.75741 19.2459 1.94667C19.0987 2.13293 19.0206 2.35523 19.0116 2.61359H17.4029C17.4149 2.09688 17.5636 1.64326 17.849 1.25272C18.1374 0.85918 18.5219 0.552759 19.0026 0.333458C19.4833 0.111153 20.0225 0 20.6203 0C21.2362 0 21.7709 0.115659 22.2245 0.346977C22.6811 0.57529 23.0341 0.883213 23.2835 1.27075C23.5328 1.65828 23.6575 2.08637 23.6575 2.55501C23.6605 3.07472 23.5073 3.51032 23.1979 3.8618C22.8914 4.21329 22.4889 4.4431 21.9902 4.55125V4.62335C22.6391 4.71347 23.1363 4.9538 23.4817 5.34434C23.8302 5.73187 24.003 6.21403 24 6.79083C24 7.30754 23.8528 7.77017 23.5584 8.17873C23.267 8.58429 22.8644 8.90273 22.3507 9.13404C21.84 9.36536 21.2542 9.48102 20.5933 9.48102Z" fill="#666666"/>
</svg>
