<svg width="24" height="27" viewBox="0 0 24 27" fill="none" xmlns="http://www.w3.org/2000/svg">
<mask id="path-1-inside-1_2120_14494" fill="white">
<rect width="24" height="24" rx="1"/>
</mask>
<rect width="24" height="24" rx="1" stroke="#666666" stroke-width="4" mask="url(#path-1-inside-1_2120_14494)"/>
<path d="M10.88 2.92C11.1067 2.89333 11.3267 2.9 11.54 2.94C12.1533 3.02 12.58 3.3 12.82 3.78C12.9267 3.99333 12.98 4.22 12.98 4.46C12.98 4.74 12.9267 4.98667 12.82 5.2C12.7533 5.32 12.6667 5.44 12.56 5.56C12.44 5.66667 12.32 5.75333 12.2 5.82C11.6667 6.07333 11.2267 6.04 10.88 5.72C10.56 5.42667 10.5267 5.01333 10.78 4.48C10.9 4.25333 11.0533 4.07333 11.24 3.94C11.2933 3.92667 11.32 3.90667 11.32 3.88L11.14 3.84C11.02 3.84 10.9267 3.86 10.86 3.9C10.78 3.92667 10.7067 3.98667 10.64 4.08C10.56 4.16 10.5067 4.26 10.48 4.38C10.3867 4.76667 10.2133 5.64667 9.96 7.02C9.78667 7.88667 9.7 8.32667 9.7 8.34C9.7 8.36667 10.08 8.38 10.84 8.38C11.6533 8.38 12.0933 8.42667 12.16 8.52L12.18 8.58L12.1 8.98C12.0333 9.23333 11.98 9.38 11.94 9.42L11.88 9.48L10.68 9.5H9.5L9.08 11.66C8.58667 14.3267 8.27333 15.92 8.14 16.44C7.71333 18.2933 7.14 19.5867 6.42 20.32C6.19333 20.56 5.94667 20.7533 5.68 20.9C5.42667 21.02 5.19333 21.0867 4.98 21.1C4.60667 21.1133 4.25333 21.0333 3.92 20.86C3.82667 20.82 3.7 20.7333 3.54 20.6C3.26 20.3067 3.12 19.9533 3.12 19.54C3.12 19.26 3.17333 19.0133 3.28 18.8C3.34667 18.68 3.43333 18.56 3.54 18.44C3.66 18.3333 3.78 18.2467 3.9 18.18C4.43333 17.9267 4.87333 17.96 5.22 18.28C5.54 18.5733 5.57333 18.9867 5.32 19.52C5.18667 19.76 5.02667 19.94 4.84 20.06C4.8 20.0867 4.77333 20.1067 4.76 20.12C4.76 20.1467 4.84667 20.16 5.02 20.16L5.14 20.14H5.16C5.34667 20.0467 5.50667 19.8467 5.64 19.54C5.74667 19.2733 6.04 17.92 6.52 15.48L7.64 9.52C7.64 9.50667 7.30667 9.5 6.64 9.5H5.64L5.56 9.44C5.50667 9.37333 5.51333 9.19333 5.58 8.9C5.64667 8.60667 5.70667 8.44667 5.76 8.42C5.8 8.39333 6.16 8.38 6.84 8.38C7.52 8.38 7.86 8.37333 7.86 8.36L8.24 6.32C8.49333 5.18667 8.84 4.37333 9.28 3.88C9.72 3.34667 10.2533 3.02667 10.88 2.92Z" fill="#666666"/>
<path d="M9.1328 20.8624C9.0432 20.6384 8.96 20.376 8.8832 20.0752C8.8064 19.7808 8.7488 19.4704 8.7104 19.144C8.672 18.8176 8.6528 18.4912 8.6528 18.1648C8.6528 17.5824 8.7008 17.0064 8.7968 16.4368C8.8992 15.8608 9.0432 15.3008 9.2288 14.7568C9.4144 14.2128 9.6416 13.6976 9.9104 13.2112C10.1792 12.7248 10.4832 12.28 10.8224 11.8768H12.032C11.6736 12.3312 11.3568 12.8144 11.0816 13.3264C10.8128 13.8384 10.5824 14.3632 10.3904 14.9008C10.1984 15.4384 10.0512 15.9888 9.9488 16.552C9.8528 17.1088 9.8048 17.6688 9.8048 18.232C9.8048 18.6736 9.84 19.1088 9.9104 19.5376C9.9872 19.9664 10.096 20.408 10.2368 20.8624H9.1328ZM11.1745 19L14.0545 16.0336L13.9201 16.6576L12.3553 13.8736H13.6033L14.7361 15.928L14.1793 15.9184L16.1377 13.8736H17.4817L14.7265 16.7344L14.8225 16.072L16.4833 19H15.2161L14.0353 16.8592H14.5825L12.5569 19H11.1745ZM17.0425 20.8624C17.4009 20.4016 17.7177 19.9152 17.9929 19.4032C18.2681 18.8976 18.4985 18.376 18.6841 17.8384C18.8761 17.3008 19.0201 16.7536 19.1161 16.1968C19.2185 15.6336 19.2697 15.0704 19.2697 14.5072C19.2697 14.0656 19.2345 13.6304 19.1641 13.2016C19.0937 12.7728 18.9849 12.3312 18.8377 11.8768H19.9417C20.0377 12.1008 20.1209 12.3632 20.1913 12.664C20.2681 12.9584 20.3257 13.2688 20.3641 13.5952C20.4025 13.9216 20.4217 14.248 20.4217 14.5744C20.4217 15.1504 20.3705 15.7264 20.2681 16.3024C20.1721 16.8784 20.0313 17.4384 19.8457 17.9824C19.6601 18.5264 19.4329 19.0416 19.1641 19.528C18.9017 20.0144 18.5977 20.4592 18.2521 20.8624H17.0425Z" fill="#666666"/>
</svg>
