<svg width="24" height="24" viewBox="0 0 24 24" fill="none" xmlns="http://www.w3.org/2000/svg">
<mask id="path-1-inside-1_2108_14478" fill="white">
<rect width="24" height="24" rx="1"/>
</mask>
<rect width="24" height="24" rx="1" stroke="#666666" stroke-width="4" mask="url(#path-1-inside-1_2108_14478)"/>
<path d="M8.9267 10.4826L2.11459 18.725C2.04052 18.8146 2 18.9272 2 19.0435V22.5C2 22.7761 2.22386 23 2.5 23H22.5C22.7761 23 23 22.7761 23 22.5V21.3564C23 21.2717 22.9785 21.1884 22.9375 21.1143L19.426 14.7698C19.2382 14.4304 18.7522 14.4249 18.5567 14.7599L16.537 18.2222C16.3582 18.5287 15.9259 18.5566 15.7092 18.2756L9.70801 10.4958C9.51208 10.2418 9.13105 10.2354 8.9267 10.4826Z" fill="#666666"/>
<circle cx="18" cy="7" r="2" fill="#666666"/>
</svg>
