<svg width="16" height="16" viewBox="0 0 16 16" fill="none" xmlns="http://www.w3.org/2000/svg">
<g clip-path="url(#clip0_356_6688)">
<path d="M5.71065 3.97333C5.66296 3.6449 5.68651 3.31004 5.77968 2.99151C5.87286 2.67298 6.03348 2.37822 6.25064 2.12726C6.4678 1.87629 6.73642 1.67499 7.03826 1.53702C7.34011 1.39905 7.6681 1.32764 7.99998 1.32764C8.33186 1.32764 8.65985 1.39905 8.96169 1.53702C9.26353 1.67499 9.53216 1.87629 9.74932 2.12726C9.96648 2.37822 10.1271 2.67298 10.2203 2.99151C10.3134 3.31004 10.337 3.6449 10.2893 3.97333L9.52131 9.34667C9.46816 9.71222 9.28515 10.0464 9.00579 10.2881C8.72642 10.5298 8.36938 10.6628 7.99998 10.6628C7.63058 10.6628 7.27354 10.5298 6.99417 10.2881C6.7148 10.0464 6.5318 9.71222 6.47865 9.34667L5.71065 3.97333ZM8.96931 3.784C8.99004 3.64465 8.98048 3.50247 8.94129 3.36714C8.90209 3.23182 8.83418 3.10654 8.74218 2.99984C8.65018 2.89315 8.53625 2.80754 8.40817 2.74886C8.28009 2.69018 8.14086 2.6598 7.99998 2.6598C7.8591 2.6598 7.71987 2.69018 7.59179 2.74886C7.4637 2.80754 7.34978 2.89315 7.25778 2.99984C7.16578 3.10654 7.09787 3.23182 7.05867 3.36714C7.01948 3.50247 7.00992 3.64465 7.03065 3.784L7.79865 9.15733C7.80551 9.20602 7.82973 9.25058 7.86685 9.28283C7.90396 9.31508 7.95148 9.33284 8.00065 9.33284C8.04981 9.33284 8.09733 9.31508 8.13444 9.28283C8.17156 9.25058 8.19578 9.20602 8.20265 9.15733L8.96931 3.784ZM7.99998 14.6667C8.3536 14.6667 8.69274 14.5262 8.94279 14.2761C9.19284 14.0261 9.33331 13.687 9.33331 13.3333C9.33331 12.9797 9.19284 12.6406 8.94279 12.3905C8.69274 12.1405 8.3536 12 7.99998 12C7.64636 12 7.30722 12.1405 7.05717 12.3905C6.80712 12.6406 6.66665 12.9797 6.66665 13.3333C6.66665 13.687 6.80712 14.0261 7.05717 14.2761C7.30722 14.5262 7.64636 14.6667 7.99998 14.6667Z" fill="#666666"/>
</g>
<defs>
<clipPath id="clip0_356_6688">
<rect width="16" height="16" fill="white"/>
</clipPath>
</defs>
</svg>
