<svg width="24" height="11" viewBox="0 0 24 11" fill="none" xmlns="http://www.w3.org/2000/svg">
<path d="M4.47598 0.139222V10.3223H2.54954V1.93419H2.48723L0 3.45569V1.76514L2.64301 0.139222H4.47598Z" fill="#666666"/>
<path d="M7.1761 10.3223V8.98976L10.868 5.52413C11.2211 5.1827 11.5153 4.8794 11.7507 4.61421C11.9861 4.34903 12.1627 4.09213 12.2804 3.84352C12.3981 3.59491 12.4569 3.32973 12.4569 3.04797C12.4569 2.72643 12.3808 2.4513 12.2285 2.22258C12.0761 1.99054 11.8667 1.81154 11.6002 1.68558C11.3336 1.55962 11.0307 1.49664 10.6915 1.49664C10.3418 1.49664 10.0355 1.56625 9.77238 1.70547C9.50929 1.84138 9.30505 2.03529 9.15965 2.28722C9.01773 2.53914 8.94676 2.83913 8.94676 3.18719H7.11379C7.11379 2.5408 7.26784 1.97894 7.57593 1.50161C7.88402 1.02428 8.30808 0.654675 8.8481 0.392805C9.39159 0.130935 10.0147 0 10.7174 0C11.4305 0 12.0571 0.12762 12.5971 0.38286C13.1371 0.638101 13.556 0.987813 13.8537 1.432C14.1549 1.87618 14.3055 2.38335 14.3055 2.9535C14.3055 3.3347 14.2293 3.70927 14.077 4.07722C13.9247 4.44516 13.6564 4.85288 13.2722 5.30038C12.8914 5.74788 12.3565 6.28985 11.6677 6.92629L9.83469 8.71132V8.78093H14.4664V10.3223H7.1761Z" fill="#666666"/>
<path d="M20.0744 10.4615C19.3267 10.4615 18.662 10.3389 18.0805 10.0936C17.5023 9.8483 17.0454 9.50687 16.7096 9.06932C16.3738 8.63176 16.1956 8.12626 16.1748 7.55279H18.1272C18.1445 7.82792 18.2397 8.06825 18.4128 8.27376C18.5859 8.47597 18.8161 8.63342 19.1034 8.74613C19.3907 8.85883 19.7126 8.91518 20.0692 8.91518C20.45 8.91518 20.7875 8.8522 21.0817 8.72624C21.376 8.59696 21.6062 8.41796 21.7724 8.18924C21.9385 7.96051 22.0199 7.69699 22.0164 7.39865C22.0199 7.09038 21.9368 6.81856 21.7672 6.58321C21.5975 6.34786 21.3518 6.16389 21.0298 6.0313C20.7113 5.8987 20.3271 5.83241 19.8771 5.83241H19.5V4.41035H19.8771C20.2475 4.41035 20.5711 4.34903 20.8481 4.22638C21.1285 4.10373 21.3483 3.93136 21.5075 3.70927C21.6668 3.48386 21.7447 3.22365 21.7412 2.92863C21.7447 2.64025 21.6772 2.38998 21.5387 2.17783C21.4037 1.96237 21.2116 1.79497 20.9623 1.67564C20.7165 1.5563 20.4275 1.49664 20.0952 1.49664C19.7698 1.49664 19.4686 1.55299 19.1917 1.66569C18.9147 1.7784 18.6914 1.93916 18.5218 2.148C18.3522 2.35351 18.2622 2.59881 18.2518 2.88388H16.3981C16.4119 2.31374 16.5833 1.8132 16.9121 1.38228C17.2445 0.948035 17.6875 0.609925 18.2414 0.367944C18.7953 0.122648 19.4167 0 20.1055 0C20.8152 0 21.4314 0.12762 21.9541 0.38286C22.4803 0.634786 22.887 0.974554 23.1743 1.40216C23.4617 1.82977 23.6053 2.30213 23.6053 2.81925C23.6088 3.39271 23.4322 3.87336 23.0757 4.26119C22.7226 4.64902 22.2587 4.9026 21.6841 5.02194V5.10149C22.4318 5.20094 23.0047 5.46612 23.4028 5.89705C23.8044 6.32466 24.0034 6.85668 24 7.49313C24 8.06327 23.8303 8.57376 23.4911 9.02457C23.1553 9.47207 22.6914 9.82344 22.0995 10.0787C21.511 10.3339 20.836 10.4615 20.0744 10.4615Z" fill="#666666"/>
</svg>
