<svg width="30" height="30" viewBox="0 0 30 30" fill="none" xmlns="http://www.w3.org/2000/svg">
<path fill-rule="evenodd" clip-rule="evenodd" d="M4.83382 16.8544C2.64475 19.0435 2.68817 22.8405 5.18737 25.3397C7.68658 27.8389 11.4836 27.8823 13.6727 25.6933C14.1608 25.2051 14.9523 25.2051 15.4404 25.6933C15.9286 26.1814 15.9286 26.9729 15.4404 27.461C12.1621 30.7393 6.77827 30.4662 3.41961 27.1075C0.0609454 23.7488 -0.212219 18.365 3.06605 15.0867C3.55421 14.5985 4.34566 14.5985 4.83382 15.0867C5.32198 15.5748 5.32197 16.3663 4.83382 16.8544Z" fill="#666666"/>
<path fill-rule="evenodd" clip-rule="evenodd" d="M24.9864 14.3796C27.6771 11.6889 27.7279 7.57509 25.34 5.18718C22.9521 2.79928 18.8382 2.8501 16.1476 5.54074C15.6594 6.02889 14.868 6.02889 14.3798 5.54074C13.8917 5.05258 13.8917 4.26113 14.3798 3.77297C17.9376 0.215222 23.6378 -0.0505397 27.1077 3.41942C30.5777 6.88937 30.3119 12.5896 26.7542 16.1473C26.266 16.6355 25.4746 16.6355 24.9864 16.1473C24.4983 15.6592 24.4983 14.8677 24.9864 14.3796Z" fill="#666666"/>
<path d="M8.54601 21.981C7.96023 21.3952 7.96023 20.4454 8.54601 19.8597L19.1526 9.25305C19.7384 8.66726 20.6881 8.66726 21.2739 9.25305V9.25305C21.8597 9.83884 21.8597 10.7886 21.2739 11.3744L10.6673 21.981C10.0815 22.5668 9.1318 22.5668 8.54601 21.981V21.981Z" fill="#666666"/>
</svg>
