<svg width="24" height="24" viewBox="0 0 24 24" fill="none" xmlns="http://www.w3.org/2000/svg">
<mask id="path-1-inside-1_2108_14541" fill="white">
<rect width="24" height="24" rx="1"/>
</mask>
<rect width="24" height="24" rx="1" stroke="#666666" stroke-width="4" mask="url(#path-1-inside-1_2108_14541)"/>
<path d="M7.66541 9.82955C7.97313 9.77904 8.16119 9.72854 8.22957 9.67803C8.29796 9.62247 8.33215 9.51641 8.33215 9.35985V5.26894C7.70204 5.27904 7.36501 5.29419 7.32105 5.31439C7.27709 5.3346 7.2429 5.35732 7.21847 5.38258C7.15986 5.46338 7.08903 5.74874 7.00599 6.23864L6.63233 6.20833C6.62744 6.13258 6.625 5.98611 6.625 5.76894C6.625 5.54672 6.64698 5.24874 6.69094 4.875H10.6841C10.728 5.24874 10.75 5.54672 10.75 5.76894C10.75 5.98611 10.7476 6.13258 10.7427 6.20833L10.369 6.23864C10.286 5.74874 10.2127 5.46338 10.1492 5.38258C10.1297 5.35732 10.0979 5.3346 10.054 5.31439C10.01 5.29419 9.67296 5.27904 9.04285 5.26894V9.54167C9.04285 9.65783 9.0917 9.72348 9.18939 9.73864L9.75355 9.82955L9.72424 10.125H7.70937L7.66541 9.82955Z" fill="#666666"/>
<path fill-rule="evenodd" clip-rule="evenodd" d="M4 3H7.375V3.75H4.75V6.375H4V3Z" fill="#666666"/>
<path fill-rule="evenodd" clip-rule="evenodd" d="M4 12H7.375V11.25H4.75V8.625H4V12Z" fill="#666666"/>
<path fill-rule="evenodd" clip-rule="evenodd" d="M13 3H9.625V3.75H12.25V6.375H13V3Z" fill="#666666"/>
<path fill-rule="evenodd" clip-rule="evenodd" d="M13 12H9.625V11.25H12.25V8.625H13V12Z" fill="#666666"/>
<path fill-rule="evenodd" clip-rule="evenodd" d="M20 13.5C20 13.7761 19.7761 14 19.5 14H4.5C4.22386 14 4 13.7761 4 13.5C4 13.2239 4.22386 13 4.5 13H19.5C19.7761 13 20 13.2239 20 13.5Z" fill="#666666"/>
<path fill-rule="evenodd" clip-rule="evenodd" d="M20 16.5C20 16.7761 19.7761 17 19.5 17H4.5C4.22386 17 4 16.7761 4 16.5C4 16.2239 4.22386 16 4.5 16H19.5C19.7761 16 20 16.2239 20 16.5Z" fill="#666666"/>
<path fill-rule="evenodd" clip-rule="evenodd" d="M20 19.5C20 19.7761 19.7761 20 19.5 20H4.5C4.22386 20 4 19.7761 4 19.5C4 19.2239 4.22386 19 4.5 19H19.5C19.7761 19 20 19.2239 20 19.5Z" fill="#666666"/>
</svg>
