<svg width="25" height="32" viewBox="0 0 25 32" fill="none" xmlns="http://www.w3.org/2000/svg">
<mask id="path-1-inside-1_2119_14463" fill="white">
<rect y="11" width="10" height="10" rx="1"/>
</mask>
<rect y="11" width="10" height="10" rx="1" stroke="#666666" stroke-width="4" mask="url(#path-1-inside-1_2119_14463)"/>
<mask id="path-2-inside-2_2119_14463" fill="white">
<rect x="15" y="11" width="10" height="10" rx="1"/>
</mask>
<rect x="15" y="11" width="10" height="10" rx="1" stroke="#666666" stroke-width="4" mask="url(#path-2-inside-2_2119_14463)"/>
<mask id="path-3-inside-3_2119_14463" fill="white">
<rect x="15" y="22" width="10" height="10" rx="1"/>
</mask>
<rect x="15" y="22" width="10" height="10" rx="1" stroke="#666666" stroke-width="4" mask="url(#path-3-inside-3_2119_14463)"/>
<mask id="path-4-inside-4_2119_14463" fill="white">
<rect x="15" width="10" height="10" rx="1"/>
</mask>
<rect x="15" width="10" height="10" rx="1" stroke="#666666" stroke-width="4" mask="url(#path-4-inside-4_2119_14463)"/>
<line x1="9" y1="16" x2="12" y2="16" stroke="#666666" stroke-width="2"/>
<path d="M12 5L15 5" stroke="#666666" stroke-width="2" stroke-linecap="round"/>
<path d="M13 16H15" stroke="#666666" stroke-width="2" stroke-linecap="round"/>
<path d="M12 27L15 27" stroke="#666666" stroke-width="2" stroke-linecap="round"/>
<path d="M12 5L12 27" stroke="#666666" stroke-width="2" stroke-linecap="round"/>
<path d="M4 16L6 16" stroke="#666666" stroke-width="2" stroke-linecap="round"/>
</svg>
