<svg width="24" height="24" viewBox="0 0 24 24" fill="none" xmlns="http://www.w3.org/2000/svg">
<path d="M12 21C11.2899 21 10.7143 20.4244 10.7143 19.7143V13.2857H4.28572C3.57563 13.2857 3 12.7101 3 12C3 11.2899 3.57563 10.7143 4.28571 10.7143H10.7143V4.28572C10.7143 3.57563 11.2899 3 12 3C12.7101 3 13.2857 3.57563 13.2857 4.28571V10.7143H19.7143C20.4244 10.7143 21 11.2899 21 12C21 12.7101 20.4244 13.2857 19.7143 13.2857H13.2857V19.7143C13.2857 20.4244 12.7101 21 12 21Z" fill="#54A6FB"/>
</svg>
