<svg width="12" height="24" viewBox="0 0 12 24" fill="none" xmlns="http://www.w3.org/2000/svg">
<path fill-rule="evenodd" clip-rule="evenodd" d="M5.10137 2.03839C4.99948 1.88084 4.94033 1.69306 4.94033 1.49146V1.00854C4.94033 0.451537 5.39187 0 5.94887 0C6.50587 0 6.9574 0.451537 6.9574 1.00854V1.49146C6.9574 1.69607 6.89648 1.88644 6.79178 2.04543C8.06817 2.18173 9.13903 2.62475 10.0043 3.37447C10.7308 3.99394 11.2429 4.75015 11.5407 5.6431C11.7801 6.36118 11.1687 7.02104 10.4118 7.02104C9.75691 7.02104 9.23267 6.50513 8.91066 5.9349C8.73321 5.62067 8.49222 5.3282 8.18769 5.0575C7.55656 4.47779 6.72073 4.18794 5.68021 4.18794C4.70792 4.18794 3.91474 4.46844 3.30066 5.02945C2.68659 5.57176 2.37955 6.33848 2.37955 7.32959C2.37955 8.04021 2.55865 8.61992 2.91686 9.06872C3.29213 9.51753 3.74416 9.86349 4.27295 10.1066C4.8188 10.331 5.57786 10.5928 6.55015 10.892C7.72713 11.2473 8.67383 11.6026 9.39026 11.9579C10.1067 12.2945 10.7208 12.8275 11.2325 13.5568C11.7442 14.2674 12.0001 15.2398 12.0001 16.4741C12.0001 17.4278 11.7698 18.3254 11.3092 19.1669C10.8487 20.0084 10.1664 20.691 9.26232 21.2146C8.58498 21.6069 7.81667 21.8522 6.9574 21.9506V22.9915C6.9574 23.5485 6.50587 24 5.94887 24C5.39187 24 4.94033 23.5485 4.94033 22.9915V21.927C4.20359 21.8279 3.52057 21.6278 2.89128 21.3268C1.97016 20.8593 1.24521 20.2235 0.716423 19.4194C0.412856 18.947 0.193613 18.4346 0.0586966 17.8821C-0.111929 17.1834 0.486891 16.5863 1.20613 16.5863C1.87108 16.5863 2.40066 17.1068 2.64502 17.7252C2.81875 18.1649 3.07141 18.5613 3.40301 18.9144C4.01709 19.5316 4.90408 19.8401 6.06401 19.8401C7.17276 19.8401 8.0427 19.5409 8.67383 18.9425C9.32203 18.3254 9.64612 17.54 9.64612 16.5863C9.64612 15.8382 9.45849 15.2305 9.08322 14.763C8.70795 14.2955 8.23886 13.9402 7.67596 13.6971C7.11305 13.4539 6.35399 13.1921 5.39876 12.9116C4.22178 12.575 3.27508 12.2384 2.55865 11.9018C1.85929 11.5652 1.25374 11.0416 0.742009 10.331C0.247336 9.60168 0 8.62927 0 7.41374C0 6.34783 0.247336 5.40346 0.742009 4.58065C1.23668 3.75783 1.92752 3.12202 2.81452 2.67321C3.50268 2.33158 4.26496 2.11998 5.10137 2.03839Z" fill="#666666"/>
</svg>
