<svg width="26" height="22" viewBox="0 0 26 22" fill="none" xmlns="http://www.w3.org/2000/svg">
<path fill-rule="evenodd" clip-rule="evenodd" d="M23 2C23 3.10457 22.1046 4 21 4H7C5.89543 4 5 3.10457 5 2V2C5 0.895431 5.89543 0 7 0H21C22.1046 0 23 0.895431 23 2V2Z" fill="#666666"/>
<path fill-rule="evenodd" clip-rule="evenodd" d="M4 2C4 3.10457 3.10457 4 2 4V4C0.895431 4 0 3.10457 0 2V2C0 0.895431 0.895431 0 2 0V0C3.10457 0 4 0.895431 4 2V2Z" fill="#666666"/>
<path fill-rule="evenodd" clip-rule="evenodd" d="M25 8C25 9.10457 24.1046 10 23 10H9C7.89543 10 7 9.10457 7 8V8C7 6.89543 7.89543 6 9 6H23C24.1046 6 25 6.89543 25 8V8Z" stroke="#666666" stroke-width="0.5"/>
<path fill-rule="evenodd" clip-rule="evenodd" d="M6 8C6 9.10457 5.10457 10 4 10V10C2.89543 10 2 9.10457 2 8V8C2 6.89543 2.89543 6 4 6V6C5.10457 6 6 6.89543 6 8V8Z" stroke="#666666" stroke-width="0.5"/>
<path fill-rule="evenodd" clip-rule="evenodd" d="M25 14C25 15.1046 24.1046 16 23 16H9C7.89543 16 7 15.1046 7 14V14C7 12.8954 7.89543 12 9 12H23C24.1046 12 25 12.8954 25 14V14Z" stroke="#666666" stroke-width="0.5"/>
<path fill-rule="evenodd" clip-rule="evenodd" d="M23 20C23 21.1046 22.1046 22 21 22H7C5.89543 22 5 21.1046 5 20V20C5 18.8954 5.89543 18 7 18H21C22.1046 18 23 18.8954 23 20V20Z" fill="#666666"/>
<path fill-rule="evenodd" clip-rule="evenodd" d="M6 14C6 15.1046 5.10457 16 4 16V16C2.89543 16 2 15.1046 2 14V14C2 12.8954 2.89543 12 4 12V12C5.10457 12 6 12.8954 6 14V14Z" stroke="#666666" stroke-width="0.5"/>
<path fill-rule="evenodd" clip-rule="evenodd" d="M4 20C4 21.1046 3.10457 22 2 22V22C0.895431 22 0 21.1046 0 20V20C0 18.8954 0.895431 18 2 18V18C3.10457 18 4 18.8954 4 20V20Z" fill="#666666"/>
</svg>
