<svg width="24" height="24" viewBox="0 0 24 24" fill="none" xmlns="http://www.w3.org/2000/svg">
<path d="M9.77442 18.2121C10.595 18.0774 11.0965 17.9428 11.2789 17.8081C11.4612 17.6599 11.5524 17.3771 11.5524 16.9596V6.0505C9.87211 6.07744 8.97336 6.11784 8.85613 6.17172C8.7389 6.22559 8.64772 6.28619 8.58259 6.35353C8.42629 6.56902 8.23742 7.32997 8.01599 8.63636L7.01954 8.55556C7.00651 8.35354 7 7.96296 7 7.38384C7 6.79125 7.05861 5.99663 7.17584 5H17.8242C17.9414 5.99663 18 6.79125 18 7.38384C18 7.96296 17.9935 8.35354 17.9805 8.55556L16.984 8.63636C16.7626 7.32997 16.5672 6.56902 16.3979 6.35353C16.3458 6.28619 16.2611 6.22559 16.1439 6.17172C16.0266 6.11784 15.1279 6.07744 13.4476 6.0505V17.4444C13.4476 17.7542 13.5779 17.9293 13.8384 17.9697L15.3428 18.2121L15.2647 19H9.89165L9.77442 18.2121Z" fill="#666666"/>
<path d="M1 9V1H9" stroke="#666666" stroke-width="2"/>
<path d="M1 15V23H9" stroke="#666666" stroke-width="2"/>
<path d="M23 9V1H15" stroke="#666666" stroke-width="2"/>
<path d="M23 15V23H15" stroke="#666666" stroke-width="2"/>
</svg>
