<svg width="24" height="24" viewBox="0 0 24 24" fill="none" xmlns="http://www.w3.org/2000/svg">
<circle cx="12" cy="12" r="11" stroke="#666666" stroke-width="2"/>
<circle cx="12" cy="12" r="1" fill="#666666"/>
<path d="M6 7L12 12L16 8" stroke="#666666" stroke-linecap="round"/>
<path fill-rule="evenodd" clip-rule="evenodd" d="M12 5C11.7239 5 11.5 4.77614 11.5 4.5L11.5 3.5C11.5 3.22386 11.7239 3 12 3V3C12.2761 3 12.5 3.22386 12.5 3.5L12.5 4.5C12.5 4.77614 12.2761 5 12 5V5Z" fill="#666666" fill-opacity="0.5"/>
<path fill-rule="evenodd" clip-rule="evenodd" d="M12 21C11.7239 21 11.5 20.7761 11.5 20.5L11.5 19.5C11.5 19.2239 11.7239 19 12 19V19C12.2761 19 12.5 19.2239 12.5 19.5L12.5 20.5C12.5 20.7761 12.2761 21 12 21V21Z" fill="#666666" fill-opacity="0.5"/>
<path fill-rule="evenodd" clip-rule="evenodd" d="M19 12C19 11.7239 19.2239 11.5 19.5 11.5L20.5 11.5C20.7761 11.5 21 11.7239 21 12V12C21 12.2761 20.7761 12.5 20.5 12.5L19.5 12.5C19.2239 12.5 19 12.2761 19 12V12Z" fill="#666666" fill-opacity="0.5"/>
<path fill-rule="evenodd" clip-rule="evenodd" d="M3 12C3 11.7239 3.22386 11.5 3.5 11.5L4.5 11.5C4.77614 11.5 5 11.7239 5 12V12C5 12.2761 4.77614 12.5 4.5 12.5L3.5 12.5C3.22386 12.5 3 12.2761 3 12V12Z" fill="#666666" fill-opacity="0.5"/>
</svg>
