<svg width="24" height="24" viewBox="0 0 24 24" fill="none" xmlns="http://www.w3.org/2000/svg">
<path fill-rule="evenodd" clip-rule="evenodd" d="M16 6C16 8.20914 14.2091 10 12 10C9.79086 10 8 8.20914 8 6C8 3.79086 9.79086 2 12 2C14.2091 2 16 3.79086 16 6ZM18 6C18 9.31371 15.3137 12 12 12C8.68629 12 6 9.31371 6 6C6 2.68629 8.68629 0 12 0C15.3137 0 18 2.68629 18 6ZM2 24C2 19.0294 6.02944 15 11 15H13C17.9706 15 22 19.0294 22 24H24C24 17.9249 19.0751 13 13 13H11C4.92487 13 0 17.9249 0 24H2Z" fill="#666666"/>
</svg>
